<svg xmlns="http://www.w3.org/2000/svg" xmlns:rdkit="http://www.rdkit.org/xml" xmlns:xlink="http://www.w3.org/1999/xlink" version="1.1" baseProfile="full" xml:space="preserve" width="200px" height="200px" viewBox="0 0 200 200">
<!-- END OF HEADER -->
<rect style="opacity:1.0;fill:#FFFFFF;stroke:none" width="200.0" height="200.0" x="0.0" y="0.0"> </rect>
<path class="bond-0 atom-0 atom-1" d="M 123.8,114.9 L 133.7,99.8" style="fill:none;fill-rule:evenodd;stroke:#000000;stroke-width:2.0px;stroke-linecap:butt;stroke-linejoin:miter;stroke-opacity:1"/>
<path class="bond-1 atom-1 atom-2" d="M 133.7,99.8 L 141.7,116.0" style="fill:none;fill-rule:evenodd;stroke:#000000;stroke-width:2.0px;stroke-linecap:butt;stroke-linejoin:miter;stroke-opacity:1"/>
<path class="bond-2 atom-2 atom-3" d="M 141.7,116.0 L 159.7,117.0" style="fill:none;fill-rule:evenodd;stroke:#000000;stroke-width:2.0px;stroke-linecap:butt;stroke-linejoin:miter;stroke-opacity:1"/>
<path class="bond-3 atom-3 atom-4" d="M 159.7,117.0 L 169.7,102.0" style="fill:none;fill-rule:evenodd;stroke:#000000;stroke-width:2.0px;stroke-linecap:butt;stroke-linejoin:miter;stroke-opacity:1"/>
<path class="bond-4 atom-4 atom-5" d="M 168.8,103.3 L 176.7,103.8" style="fill:none;fill-rule:evenodd;stroke:#000000;stroke-width:2.0px;stroke-linecap:butt;stroke-linejoin:miter;stroke-opacity:1"/>
<path class="bond-4 atom-4 atom-5" d="M 176.7,103.8 L 184.6,104.3" style="fill:none;fill-rule:evenodd;stroke:#FF0000;stroke-width:2.0px;stroke-linecap:butt;stroke-linejoin:miter;stroke-opacity:1"/>
<path class="bond-4 atom-4 atom-5" d="M 169.0,100.6 L 176.9,101.1" style="fill:none;fill-rule:evenodd;stroke:#000000;stroke-width:2.0px;stroke-linecap:butt;stroke-linejoin:miter;stroke-opacity:1"/>
<path class="bond-4 atom-4 atom-5" d="M 176.9,101.1 L 184.8,101.6" style="fill:none;fill-rule:evenodd;stroke:#FF0000;stroke-width:2.0px;stroke-linecap:butt;stroke-linejoin:miter;stroke-opacity:1"/>
<path class="bond-5 atom-4 atom-6" d="M 169.7,102.0 L 161.6,85.9" style="fill:none;fill-rule:evenodd;stroke:#000000;stroke-width:2.0px;stroke-linecap:butt;stroke-linejoin:miter;stroke-opacity:1"/>
<path class="bond-6 atom-6 atom-7" d="M 161.6,85.9 L 143.6,84.8" style="fill:none;fill-rule:evenodd;stroke:#000000;stroke-width:2.0px;stroke-linecap:butt;stroke-linejoin:miter;stroke-opacity:1"/>
<path class="bond-6 atom-6 atom-7" d="M 159.9,88.5 L 145.0,87.6" style="fill:none;fill-rule:evenodd;stroke:#000000;stroke-width:2.0px;stroke-linecap:butt;stroke-linejoin:miter;stroke-opacity:1"/>
<path class="bond-7 atom-7 atom-8" d="M 143.6,84.8 L 135.6,68.7" style="fill:none;fill-rule:evenodd;stroke:#000000;stroke-width:2.0px;stroke-linecap:butt;stroke-linejoin:miter;stroke-opacity:1"/>
<path class="bond-8 atom-8 atom-9" d="M 135.6,68.7 L 117.6,67.6" style="fill:none;fill-rule:evenodd;stroke:#000000;stroke-width:2.0px;stroke-linecap:butt;stroke-linejoin:miter;stroke-opacity:1"/>
<path class="bond-9 atom-9 atom-10" d="M 117.6,67.6 L 107.6,82.6" style="fill:none;fill-rule:evenodd;stroke:#000000;stroke-width:2.0px;stroke-linecap:butt;stroke-linejoin:miter;stroke-opacity:1"/>
<path class="bond-10 atom-10 atom-11" d="M 107.6,82.6 L 115.7,98.7" style="fill:none;fill-rule:evenodd;stroke:#000000;stroke-width:2.0px;stroke-linecap:butt;stroke-linejoin:miter;stroke-opacity:1"/>
<path class="bond-11 atom-11 atom-12" d="M 115.7,98.7 L 105.8,113.8" style="fill:none;fill-rule:evenodd;stroke:#000000;stroke-width:2.0px;stroke-linecap:butt;stroke-linejoin:miter;stroke-opacity:1"/>
<path class="bond-12 atom-12 atom-13" d="M 105.8,113.8 L 109.0,120.3" style="fill:none;fill-rule:evenodd;stroke:#000000;stroke-width:2.0px;stroke-linecap:butt;stroke-linejoin:miter;stroke-opacity:1"/>
<path class="bond-12 atom-12 atom-13" d="M 109.0,120.3 L 112.2,126.7" style="fill:none;fill-rule:evenodd;stroke:#FF0000;stroke-width:2.0px;stroke-linecap:butt;stroke-linejoin:miter;stroke-opacity:1"/>
<path class="bond-13 atom-12 atom-14" d="M 105.8,113.8 L 87.8,112.7" style="fill:none;fill-rule:evenodd;stroke:#000000;stroke-width:2.0px;stroke-linecap:butt;stroke-linejoin:miter;stroke-opacity:1"/>
<path class="bond-14 atom-14 atom-15" d="M 87.8,112.7 L 79.7,96.6" style="fill:none;fill-rule:evenodd;stroke:#000000;stroke-width:2.0px;stroke-linecap:butt;stroke-linejoin:miter;stroke-opacity:1"/>
<path class="bond-15 atom-15 atom-16" d="M 79.7,96.6 L 68.3,110.5" style="fill:none;fill-rule:evenodd;stroke:#000000;stroke-width:2.0px;stroke-linecap:butt;stroke-linejoin:miter;stroke-opacity:1"/>
<path class="bond-16 atom-15 atom-17" d="M 79.7,96.6 L 62.4,91.8" style="fill:none;fill-rule:evenodd;stroke:#000000;stroke-width:2.0px;stroke-linecap:butt;stroke-linejoin:miter;stroke-opacity:1"/>
<path class="bond-17 atom-17 atom-18" d="M 62.4,91.8 L 48.3,103.0" style="fill:none;fill-rule:evenodd;stroke:#000000;stroke-width:2.0px;stroke-linecap:butt;stroke-linejoin:miter;stroke-opacity:1"/>
<path class="bond-18 atom-18 atom-19" d="M 46.8,102.4 L 48.0,110.1" style="fill:none;fill-rule:evenodd;stroke:#000000;stroke-width:2.0px;stroke-linecap:butt;stroke-linejoin:miter;stroke-opacity:1"/>
<path class="bond-18 atom-18 atom-19" d="M 48.0,110.1 L 49.1,117.8" style="fill:none;fill-rule:evenodd;stroke:#FF0000;stroke-width:2.0px;stroke-linecap:butt;stroke-linejoin:miter;stroke-opacity:1"/>
<path class="bond-18 atom-18 atom-19" d="M 49.5,102.0 L 50.6,109.7" style="fill:none;fill-rule:evenodd;stroke:#000000;stroke-width:2.0px;stroke-linecap:butt;stroke-linejoin:miter;stroke-opacity:1"/>
<path class="bond-18 atom-18 atom-19" d="M 50.6,109.7 L 51.8,117.4" style="fill:none;fill-rule:evenodd;stroke:#FF0000;stroke-width:2.0px;stroke-linecap:butt;stroke-linejoin:miter;stroke-opacity:1"/>
<path class="bond-19 atom-18 atom-20" d="M 48.3,103.0 L 31.5,96.4" style="fill:none;fill-rule:evenodd;stroke:#000000;stroke-width:2.0px;stroke-linecap:butt;stroke-linejoin:miter;stroke-opacity:1"/>
<path class="bond-20 atom-20 atom-21" d="M 31.5,96.4 L 25.9,100.8" style="fill:none;fill-rule:evenodd;stroke:#000000;stroke-width:2.0px;stroke-linecap:butt;stroke-linejoin:miter;stroke-opacity:1"/>
<path class="bond-20 atom-20 atom-21" d="M 25.9,100.8 L 20.3,105.3" style="fill:none;fill-rule:evenodd;stroke:#FF0000;stroke-width:2.0px;stroke-linecap:butt;stroke-linejoin:miter;stroke-opacity:1"/>
<path class="bond-21 atom-17 atom-22" d="M 62.4,91.8 L 61.6,73.8" style="fill:none;fill-rule:evenodd;stroke:#000000;stroke-width:2.0px;stroke-linecap:butt;stroke-linejoin:miter;stroke-opacity:1"/>
<path class="bond-22 atom-22 atom-23" d="M 61.6,73.8 L 78.4,67.4" style="fill:none;fill-rule:evenodd;stroke:#000000;stroke-width:2.0px;stroke-linecap:butt;stroke-linejoin:miter;stroke-opacity:1"/>
<path class="bond-23 atom-23 atom-24" d="M 78.4,67.4 L 89.7,81.5" style="fill:none;fill-rule:evenodd;stroke:#000000;stroke-width:2.0px;stroke-linecap:butt;stroke-linejoin:miter;stroke-opacity:1"/>
<path class="bond-24 atom-7 atom-1" d="M 143.6,84.8 L 133.7,99.8" style="fill:none;fill-rule:evenodd;stroke:#000000;stroke-width:2.0px;stroke-linecap:butt;stroke-linejoin:miter;stroke-opacity:1"/>
<path class="bond-25 atom-24 atom-10" d="M 89.7,81.5 L 107.6,82.6" style="fill:none;fill-rule:evenodd;stroke:#000000;stroke-width:2.0px;stroke-linecap:butt;stroke-linejoin:miter;stroke-opacity:1"/>
<path class="bond-26 atom-11 atom-1" d="M 115.7,98.7 L 133.7,99.8" style="fill:none;fill-rule:evenodd;stroke:#000000;stroke-width:2.0px;stroke-linecap:butt;stroke-linejoin:miter;stroke-opacity:1"/>
<path class="bond-27 atom-24 atom-15" d="M 89.7,81.5 L 79.7,96.6" style="fill:none;fill-rule:evenodd;stroke:#000000;stroke-width:2.0px;stroke-linecap:butt;stroke-linejoin:miter;stroke-opacity:1"/>
<path d="M 141.3,115.2 L 141.7,116.0 L 142.6,116.0" style="fill:none;stroke:#000000;stroke-width:2.0px;stroke-linecap:butt;stroke-linejoin:miter;stroke-opacity:1;"/>
<path d="M 158.8,117.0 L 159.7,117.0 L 160.2,116.3" style="fill:none;stroke:#000000;stroke-width:2.0px;stroke-linecap:butt;stroke-linejoin:miter;stroke-opacity:1;"/>
<path d="M 169.2,102.8 L 169.7,102.0 L 169.3,101.2" style="fill:none;stroke:#000000;stroke-width:2.0px;stroke-linecap:butt;stroke-linejoin:miter;stroke-opacity:1;"/>
<path d="M 162.0,86.7 L 161.6,85.9 L 160.7,85.8" style="fill:none;stroke:#000000;stroke-width:2.0px;stroke-linecap:butt;stroke-linejoin:miter;stroke-opacity:1;"/>
<path d="M 136.0,69.5 L 135.6,68.7 L 134.7,68.6" style="fill:none;stroke:#000000;stroke-width:2.0px;stroke-linecap:butt;stroke-linejoin:miter;stroke-opacity:1;"/>
<path d="M 118.5,67.6 L 117.6,67.6 L 117.1,68.3" style="fill:none;stroke:#000000;stroke-width:2.0px;stroke-linecap:butt;stroke-linejoin:miter;stroke-opacity:1;"/>
<path d="M 88.7,112.7 L 87.8,112.7 L 87.4,111.9" style="fill:none;stroke:#000000;stroke-width:2.0px;stroke-linecap:butt;stroke-linejoin:miter;stroke-opacity:1;"/>
<path d="M 49.0,102.4 L 48.3,103.0 L 47.4,102.7" style="fill:none;stroke:#000000;stroke-width:2.0px;stroke-linecap:butt;stroke-linejoin:miter;stroke-opacity:1;"/>
<path d="M 32.3,96.7 L 31.5,96.4 L 31.2,96.6" style="fill:none;stroke:#000000;stroke-width:2.0px;stroke-linecap:butt;stroke-linejoin:miter;stroke-opacity:1;"/>
<path d="M 61.6,74.7 L 61.6,73.8 L 62.4,73.4" style="fill:none;stroke:#000000;stroke-width:2.0px;stroke-linecap:butt;stroke-linejoin:miter;stroke-opacity:1;"/>
<path d="M 77.6,67.8 L 78.4,67.4 L 79.0,68.1" style="fill:none;stroke:#000000;stroke-width:2.0px;stroke-linecap:butt;stroke-linejoin:miter;stroke-opacity:1;"/>
<path class="atom-5" d="M 185.3 103.1 Q 185.3 101.9, 185.9 101.2 Q 186.5 100.5, 187.7 100.5 Q 188.8 100.5, 189.4 101.2 Q 190.0 101.9, 190.0 103.1 Q 190.0 104.4, 189.4 105.1 Q 188.8 105.8, 187.7 105.8 Q 186.5 105.8, 185.9 105.1 Q 185.3 104.4, 185.3 103.1 M 187.7 105.2 Q 188.4 105.2, 188.9 104.7 Q 189.3 104.1, 189.3 103.1 Q 189.3 102.1, 188.9 101.6 Q 188.4 101.1, 187.7 101.1 Q 186.9 101.1, 186.5 101.6 Q 186.0 102.1, 186.0 103.1 Q 186.0 104.1, 186.5 104.7 Q 186.9 105.2, 187.7 105.2 " fill="#FF0000"/>
<path class="atom-13" d="M 111.5 129.9 Q 111.5 128.7, 112.1 128.0 Q 112.7 127.3, 113.8 127.3 Q 114.9 127.3, 115.6 128.0 Q 116.2 128.7, 116.2 129.9 Q 116.2 131.2, 115.5 131.9 Q 114.9 132.6, 113.8 132.6 Q 112.7 132.6, 112.1 131.9 Q 111.5 131.2, 111.5 129.9 M 113.8 132.0 Q 114.6 132.0, 115.0 131.5 Q 115.4 130.9, 115.4 129.9 Q 115.4 128.9, 115.0 128.4 Q 114.6 127.9, 113.8 127.9 Q 113.0 127.9, 112.6 128.4 Q 112.2 128.9, 112.2 129.9 Q 112.2 130.9, 112.6 131.5 Q 113.0 132.0, 113.8 132.0 " fill="#FF0000"/>
<path class="atom-13" d="M 117.0 127.4 L 117.6 127.4 L 117.6 129.6 L 120.3 129.6 L 120.3 127.4 L 120.9 127.4 L 120.9 132.5 L 120.3 132.5 L 120.3 130.1 L 117.6 130.1 L 117.6 132.5 L 117.0 132.5 L 117.0 127.4 " fill="#FF0000"/>
<path class="atom-19" d="M 48.6 120.8 Q 48.6 119.6, 49.2 118.9 Q 49.8 118.2, 50.9 118.2 Q 52.1 118.2, 52.7 118.9 Q 53.3 119.6, 53.3 120.8 Q 53.3 122.1, 52.7 122.8 Q 52.0 123.5, 50.9 123.5 Q 49.8 123.5, 49.2 122.8 Q 48.6 122.1, 48.6 120.8 M 50.9 122.9 Q 51.7 122.9, 52.1 122.4 Q 52.6 121.9, 52.6 120.8 Q 52.6 119.8, 52.1 119.3 Q 51.7 118.8, 50.9 118.8 Q 50.1 118.8, 49.7 119.3 Q 49.3 119.8, 49.3 120.8 Q 49.3 121.9, 49.7 122.4 Q 50.1 122.9, 50.9 122.9 " fill="#FF0000"/>
<path class="atom-21" d="M 10.0 105.1 L 10.7 105.1 L 10.7 107.3 L 13.3 107.3 L 13.3 105.1 L 14.0 105.1 L 14.0 110.2 L 13.3 110.2 L 13.3 107.8 L 10.7 107.8 L 10.7 110.2 L 10.0 110.2 L 10.0 105.1 " fill="#FF0000"/>
<path class="atom-21" d="M 15.0 107.6 Q 15.0 106.4, 15.6 105.7 Q 16.3 105.0, 17.4 105.0 Q 18.5 105.0, 19.1 105.7 Q 19.7 106.4, 19.7 107.6 Q 19.7 108.9, 19.1 109.6 Q 18.5 110.3, 17.4 110.3 Q 16.3 110.3, 15.6 109.6 Q 15.0 108.9, 15.0 107.6 M 17.4 109.7 Q 18.2 109.7, 18.6 109.2 Q 19.0 108.7, 19.0 107.6 Q 19.0 106.6, 18.6 106.1 Q 18.2 105.6, 17.4 105.6 Q 16.6 105.6, 16.2 106.1 Q 15.8 106.6, 15.8 107.6 Q 15.8 108.7, 16.2 109.2 Q 16.6 109.7, 17.4 109.7 " fill="#FF0000"/>
</svg>