<svg xmlns="http://www.w3.org/2000/svg" xmlns:rdkit="http://www.rdkit.org/xml" xmlns:xlink="http://www.w3.org/1999/xlink" version="1.1" baseProfile="full" xml:space="preserve" width="1000px" height="200px" viewBox="0 0 1000 200">
<!-- END OF HEADER -->
<rect style="opacity:1.0;fill:#FFFFFF;stroke:none" width="1000.0" height="200.0" x="0.0" y="0.0"> </rect>
<path class="bond-0 atom-0 atom-1" d="M 197.1,113.8 L 201.9,114.8" style="fill:none;fill-rule:evenodd;stroke:#0000FF;stroke-width:2.0px;stroke-linecap:butt;stroke-linejoin:miter;stroke-opacity:1"/>
<path class="bond-0 atom-0 atom-1" d="M 201.9,114.8 L 206.7,115.9" style="fill:none;fill-rule:evenodd;stroke:#000000;stroke-width:2.0px;stroke-linecap:butt;stroke-linejoin:miter;stroke-opacity:1"/>
<path class="bond-1 atom-1 atom-2" d="M 205.5,115.6 L 207.0,120.0" style="fill:none;fill-rule:evenodd;stroke:#000000;stroke-width:2.0px;stroke-linecap:butt;stroke-linejoin:miter;stroke-opacity:1"/>
<path class="bond-1 atom-1 atom-2" d="M 207.0,120.0 L 208.4,124.4" style="fill:none;fill-rule:evenodd;stroke:#FF0000;stroke-width:2.0px;stroke-linecap:butt;stroke-linejoin:miter;stroke-opacity:1"/>
<path class="bond-1 atom-1 atom-2" d="M 207.5,115.0 L 208.9,119.4" style="fill:none;fill-rule:evenodd;stroke:#000000;stroke-width:2.0px;stroke-linecap:butt;stroke-linejoin:miter;stroke-opacity:1"/>
<path class="bond-1 atom-1 atom-2" d="M 208.9,119.4 L 210.3,123.8" style="fill:none;fill-rule:evenodd;stroke:#FF0000;stroke-width:2.0px;stroke-linecap:butt;stroke-linejoin:miter;stroke-opacity:1"/>
<path class="bond-2 atom-1 atom-3" d="M 206.7,115.9 L 215.8,105.8" style="fill:none;fill-rule:evenodd;stroke:#000000;stroke-width:2.0px;stroke-linecap:butt;stroke-linejoin:miter;stroke-opacity:1"/>
<path class="bond-3 atom-3 atom-4" d="M 215.8,105.8 L 211.6,93.0" style="fill:none;fill-rule:evenodd;stroke:#000000;stroke-width:2.0px;stroke-linecap:butt;stroke-linejoin:miter;stroke-opacity:1"/>
<path class="bond-3 atom-3 atom-4" d="M 217.3,104.1 L 213.9,93.5" style="fill:none;fill-rule:evenodd;stroke:#000000;stroke-width:2.0px;stroke-linecap:butt;stroke-linejoin:miter;stroke-opacity:1"/>
<path class="bond-4 atom-4 atom-5" d="M 211.6,93.0 L 220.7,82.9" style="fill:none;fill-rule:evenodd;stroke:#000000;stroke-width:2.0px;stroke-linecap:butt;stroke-linejoin:miter;stroke-opacity:1"/>
<path class="bond-5 atom-5 atom-6" d="M 220.7,82.9 L 233.9,85.8" style="fill:none;fill-rule:evenodd;stroke:#000000;stroke-width:2.0px;stroke-linecap:butt;stroke-linejoin:miter;stroke-opacity:1"/>
<path class="bond-5 atom-5 atom-6" d="M 221.4,85.2 L 232.3,87.5" style="fill:none;fill-rule:evenodd;stroke:#000000;stroke-width:2.0px;stroke-linecap:butt;stroke-linejoin:miter;stroke-opacity:1"/>
<path class="bond-6 atom-6 atom-7" d="M 233.9,85.8 L 235.2,89.9" style="fill:none;fill-rule:evenodd;stroke:#000000;stroke-width:2.0px;stroke-linecap:butt;stroke-linejoin:miter;stroke-opacity:1"/>
<path class="bond-6 atom-6 atom-7" d="M 235.2,89.9 L 236.6,94.0" style="fill:none;fill-rule:evenodd;stroke:#0000FF;stroke-width:2.0px;stroke-linecap:butt;stroke-linejoin:miter;stroke-opacity:1"/>
<path class="bond-7 atom-7 atom-8" d="M 241.7,99.4 L 246.5,100.5" style="fill:none;fill-rule:evenodd;stroke:#0000FF;stroke-width:2.0px;stroke-linecap:butt;stroke-linejoin:miter;stroke-opacity:1"/>
<path class="bond-7 atom-7 atom-8" d="M 246.5,100.5 L 251.3,101.5" style="fill:none;fill-rule:evenodd;stroke:#000000;stroke-width:2.0px;stroke-linecap:butt;stroke-linejoin:miter;stroke-opacity:1"/>
<path class="bond-8 atom-8 atom-9" d="M 251.3,101.5 L 254.2,98.9" style="fill:none;fill-rule:evenodd;stroke:#000000;stroke-width:2.0px;stroke-linecap:butt;stroke-linejoin:miter;stroke-opacity:1"/>
<path class="bond-8 atom-8 atom-9" d="M 254.2,98.9 L 257.1,96.3" style="fill:none;fill-rule:evenodd;stroke:#FF0000;stroke-width:2.0px;stroke-linecap:butt;stroke-linejoin:miter;stroke-opacity:1"/>
<path class="bond-9 atom-9 atom-10" d="M 265.6,94.9 L 269.3,97.1" style="fill:none;fill-rule:evenodd;stroke:#FF0000;stroke-width:2.0px;stroke-linecap:butt;stroke-linejoin:miter;stroke-opacity:1"/>
<path class="bond-9 atom-9 atom-10" d="M 269.3,97.1 L 273.1,99.3" style="fill:none;fill-rule:evenodd;stroke:#000000;stroke-width:2.0px;stroke-linecap:butt;stroke-linejoin:miter;stroke-opacity:1"/>
<path class="bond-10 atom-10 atom-11" d="M 273.1,99.3 L 285.4,93.8" style="fill:none;fill-rule:evenodd;stroke:#000000;stroke-width:2.0px;stroke-linecap:butt;stroke-linejoin:miter;stroke-opacity:1"/>
<path class="bond-11 atom-11 atom-12" d="M 285.4,93.8 L 285.9,89.5" style="fill:none;fill-rule:evenodd;stroke:#000000;stroke-width:2.0px;stroke-linecap:butt;stroke-linejoin:miter;stroke-opacity:1"/>
<path class="bond-11 atom-11 atom-12" d="M 285.9,89.5 L 286.4,85.1" style="fill:none;fill-rule:evenodd;stroke:#FF0000;stroke-width:2.0px;stroke-linecap:butt;stroke-linejoin:miter;stroke-opacity:1"/>
<path class="bond-12 atom-12 atom-13" d="M 291.1,78.4 L 293.6,77.3" style="fill:none;fill-rule:evenodd;stroke:#FF0000;stroke-width:2.0px;stroke-linecap:butt;stroke-linejoin:miter;stroke-opacity:1"/>
<path class="bond-12 atom-12 atom-13" d="M 293.6,77.3 L 296.1,76.2" style="fill:none;fill-rule:evenodd;stroke:#FF7F00;stroke-width:2.0px;stroke-linecap:butt;stroke-linejoin:miter;stroke-opacity:1"/>
<path class="bond-13 atom-13 atom-14" d="M 298.1,69.8 L 297.5,68.4" style="fill:none;fill-rule:evenodd;stroke:#FF7F00;stroke-width:2.0px;stroke-linecap:butt;stroke-linejoin:miter;stroke-opacity:1"/>
<path class="bond-13 atom-13 atom-14" d="M 297.5,68.4 L 296.8,66.9" style="fill:none;fill-rule:evenodd;stroke:#FF0000;stroke-width:2.0px;stroke-linecap:butt;stroke-linejoin:miter;stroke-opacity:1"/>
<path class="bond-13 atom-13 atom-14" d="M 296.3,70.7 L 295.6,69.2" style="fill:none;fill-rule:evenodd;stroke:#FF7F00;stroke-width:2.0px;stroke-linecap:butt;stroke-linejoin:miter;stroke-opacity:1"/>
<path class="bond-13 atom-13 atom-14" d="M 295.6,69.2 L 295.0,67.7" style="fill:none;fill-rule:evenodd;stroke:#FF0000;stroke-width:2.0px;stroke-linecap:butt;stroke-linejoin:miter;stroke-opacity:1"/>
<path class="bond-14 atom-13 atom-15" d="M 301.3,79.5 L 302.0,81.0" style="fill:none;fill-rule:evenodd;stroke:#FF7F00;stroke-width:2.0px;stroke-linecap:butt;stroke-linejoin:miter;stroke-opacity:1"/>
<path class="bond-14 atom-13 atom-15" d="M 302.0,81.0 L 302.7,82.6" style="fill:none;fill-rule:evenodd;stroke:#FF0000;stroke-width:2.0px;stroke-linecap:butt;stroke-linejoin:miter;stroke-opacity:1"/>
<path class="bond-15 atom-13 atom-16" d="M 302.3,73.5 L 304.8,72.4" style="fill:none;fill-rule:evenodd;stroke:#FF7F00;stroke-width:2.0px;stroke-linecap:butt;stroke-linejoin:miter;stroke-opacity:1"/>
<path class="bond-15 atom-13 atom-16" d="M 304.8,72.4 L 307.3,71.3" style="fill:none;fill-rule:evenodd;stroke:#FF0000;stroke-width:2.0px;stroke-linecap:butt;stroke-linejoin:miter;stroke-opacity:1"/>
<path class="bond-16 atom-16 atom-17" d="M 315.9,72.5 L 317.7,73.8" style="fill:none;fill-rule:evenodd;stroke:#FF0000;stroke-width:2.0px;stroke-linecap:butt;stroke-linejoin:miter;stroke-opacity:1"/>
<path class="bond-16 atom-16 atom-17" d="M 317.7,73.8 L 319.4,75.1" style="fill:none;fill-rule:evenodd;stroke:#FF7F00;stroke-width:2.0px;stroke-linecap:butt;stroke-linejoin:miter;stroke-opacity:1"/>
<path class="bond-17 atom-17 atom-18" d="M 326.5,73.7 L 327.1,72.8" style="fill:none;fill-rule:evenodd;stroke:#FF7F00;stroke-width:2.0px;stroke-linecap:butt;stroke-linejoin:miter;stroke-opacity:1"/>
<path class="bond-17 atom-17 atom-18" d="M 327.1,72.8 L 327.8,71.8" style="fill:none;fill-rule:evenodd;stroke:#FF0000;stroke-width:2.0px;stroke-linecap:butt;stroke-linejoin:miter;stroke-opacity:1"/>
<path class="bond-17 atom-17 atom-18" d="M 324.8,72.5 L 325.5,71.6" style="fill:none;fill-rule:evenodd;stroke:#FF7F00;stroke-width:2.0px;stroke-linecap:butt;stroke-linejoin:miter;stroke-opacity:1"/>
<path class="bond-17 atom-17 atom-18" d="M 325.5,71.6 L 326.2,70.6" style="fill:none;fill-rule:evenodd;stroke:#FF0000;stroke-width:2.0px;stroke-linecap:butt;stroke-linejoin:miter;stroke-opacity:1"/>
<path class="bond-18 atom-17 atom-19" d="M 319.4,81.6 L 318.7,82.6" style="fill:none;fill-rule:evenodd;stroke:#FF7F00;stroke-width:2.0px;stroke-linecap:butt;stroke-linejoin:miter;stroke-opacity:1"/>
<path class="bond-18 atom-17 atom-19" d="M 318.7,82.6 L 318.0,83.6" style="fill:none;fill-rule:evenodd;stroke:#FF0000;stroke-width:2.0px;stroke-linecap:butt;stroke-linejoin:miter;stroke-opacity:1"/>
<path class="bond-19 atom-17 atom-20" d="M 325.6,79.6 L 327.4,80.9" style="fill:none;fill-rule:evenodd;stroke:#FF7F00;stroke-width:2.0px;stroke-linecap:butt;stroke-linejoin:miter;stroke-opacity:1"/>
<path class="bond-19 atom-17 atom-20" d="M 327.4,80.9 L 329.2,82.2" style="fill:none;fill-rule:evenodd;stroke:#FF0000;stroke-width:2.0px;stroke-linecap:butt;stroke-linejoin:miter;stroke-opacity:1"/>
<path class="bond-20 atom-20 atom-21" d="M 332.9,90.1 L 332.5,94.5" style="fill:none;fill-rule:evenodd;stroke:#FF0000;stroke-width:2.0px;stroke-linecap:butt;stroke-linejoin:miter;stroke-opacity:1"/>
<path class="bond-20 atom-20 atom-21" d="M 332.5,94.5 L 332.0,98.8" style="fill:none;fill-rule:evenodd;stroke:#000000;stroke-width:2.0px;stroke-linecap:butt;stroke-linejoin:miter;stroke-opacity:1"/>
<path class="bond-21 atom-21 atom-22" d="M 332.0,98.8 L 342.9,106.8" style="fill:none;fill-rule:evenodd;stroke:#000000;stroke-width:2.0px;stroke-linecap:butt;stroke-linejoin:miter;stroke-opacity:1"/>
<path class="bond-22 atom-22 atom-23" d="M 342.9,106.8 L 347.2,105.4" style="fill:none;fill-rule:evenodd;stroke:#000000;stroke-width:2.0px;stroke-linecap:butt;stroke-linejoin:miter;stroke-opacity:1"/>
<path class="bond-22 atom-22 atom-23" d="M 347.2,105.4 L 351.5,104.0" style="fill:none;fill-rule:evenodd;stroke:#FF0000;stroke-width:2.0px;stroke-linecap:butt;stroke-linejoin:miter;stroke-opacity:1"/>
<path class="bond-23 atom-23 atom-24" d="M 359.3,107.4 L 361.5,110.5" style="fill:none;fill-rule:evenodd;stroke:#FF0000;stroke-width:2.0px;stroke-linecap:butt;stroke-linejoin:miter;stroke-opacity:1"/>
<path class="bond-23 atom-23 atom-24" d="M 361.5,110.5 L 363.7,113.6" style="fill:none;fill-rule:evenodd;stroke:#000000;stroke-width:2.0px;stroke-linecap:butt;stroke-linejoin:miter;stroke-opacity:1"/>
<path class="bond-24 atom-24 atom-25" d="M 363.7,113.6 L 368.7,113.6" style="fill:none;fill-rule:evenodd;stroke:#000000;stroke-width:2.0px;stroke-linecap:butt;stroke-linejoin:miter;stroke-opacity:1"/>
<path class="bond-24 atom-24 atom-25" d="M 368.7,113.6 L 373.7,113.6" style="fill:none;fill-rule:evenodd;stroke:#0000FF;stroke-width:2.0px;stroke-linecap:butt;stroke-linejoin:miter;stroke-opacity:1"/>
<path class="bond-25 atom-25 atom-26" d="M 380.6,118.2 L 382.9,121.4" style="fill:none;fill-rule:evenodd;stroke:#0000FF;stroke-width:2.0px;stroke-linecap:butt;stroke-linejoin:miter;stroke-opacity:1"/>
<path class="bond-25 atom-25 atom-26" d="M 382.9,121.4 L 385.2,124.6" style="fill:none;fill-rule:evenodd;stroke:#000000;stroke-width:2.0px;stroke-linecap:butt;stroke-linejoin:miter;stroke-opacity:1"/>
<path class="bond-26 atom-26 atom-27" d="M 385.2,124.6 L 389.8,123.1" style="fill:none;fill-rule:evenodd;stroke:#000000;stroke-width:2.0px;stroke-linecap:butt;stroke-linejoin:miter;stroke-opacity:1"/>
<path class="bond-26 atom-26 atom-27" d="M 389.8,123.1 L 394.5,121.6" style="fill:none;fill-rule:evenodd;stroke:#0000FF;stroke-width:2.0px;stroke-linecap:butt;stroke-linejoin:miter;stroke-opacity:1"/>
<path class="bond-26 atom-26 atom-27" d="M 386.0,122.2 L 389.9,120.9" style="fill:none;fill-rule:evenodd;stroke:#000000;stroke-width:2.0px;stroke-linecap:butt;stroke-linejoin:miter;stroke-opacity:1"/>
<path class="bond-26 atom-26 atom-27" d="M 389.9,120.9 L 393.8,119.7" style="fill:none;fill-rule:evenodd;stroke:#0000FF;stroke-width:2.0px;stroke-linecap:butt;stroke-linejoin:miter;stroke-opacity:1"/>
<path class="bond-27 atom-27 atom-28" d="M 398.1,115.8 L 398.1,111.4" style="fill:none;fill-rule:evenodd;stroke:#0000FF;stroke-width:2.0px;stroke-linecap:butt;stroke-linejoin:miter;stroke-opacity:1"/>
<path class="bond-27 atom-27 atom-28" d="M 398.1,111.4 L 398.1,106.9" style="fill:none;fill-rule:evenodd;stroke:#000000;stroke-width:2.0px;stroke-linecap:butt;stroke-linejoin:miter;stroke-opacity:1"/>
<path class="bond-28 atom-28 atom-29" d="M 398.1,106.9 L 408.2,97.9" style="fill:none;fill-rule:evenodd;stroke:#000000;stroke-width:2.0px;stroke-linecap:butt;stroke-linejoin:miter;stroke-opacity:1"/>
<path class="bond-28 atom-28 atom-29" d="M 397.6,104.6 L 405.9,97.1" style="fill:none;fill-rule:evenodd;stroke:#000000;stroke-width:2.0px;stroke-linecap:butt;stroke-linejoin:miter;stroke-opacity:1"/>
<path class="bond-29 atom-29 atom-30" d="M 408.2,97.9 L 412.8,99.4" style="fill:none;fill-rule:evenodd;stroke:#000000;stroke-width:2.0px;stroke-linecap:butt;stroke-linejoin:miter;stroke-opacity:1"/>
<path class="bond-29 atom-29 atom-30" d="M 412.8,99.4 L 417.4,100.9" style="fill:none;fill-rule:evenodd;stroke:#0000FF;stroke-width:2.0px;stroke-linecap:butt;stroke-linejoin:miter;stroke-opacity:1"/>
<path class="bond-30 atom-29 atom-31" d="M 408.2,97.9 L 407.3,93.6" style="fill:none;fill-rule:evenodd;stroke:#000000;stroke-width:2.0px;stroke-linecap:butt;stroke-linejoin:miter;stroke-opacity:1"/>
<path class="bond-30 atom-29 atom-31" d="M 407.3,93.6 L 406.4,89.2" style="fill:none;fill-rule:evenodd;stroke:#0000FF;stroke-width:2.0px;stroke-linecap:butt;stroke-linejoin:miter;stroke-opacity:1"/>
<path class="bond-31 atom-31 atom-32" d="M 401.8,83.5 L 397.2,81.9" style="fill:none;fill-rule:evenodd;stroke:#0000FF;stroke-width:2.0px;stroke-linecap:butt;stroke-linejoin:miter;stroke-opacity:1"/>
<path class="bond-31 atom-31 atom-32" d="M 397.2,81.9 L 392.5,80.4" style="fill:none;fill-rule:evenodd;stroke:#000000;stroke-width:2.0px;stroke-linecap:butt;stroke-linejoin:miter;stroke-opacity:1"/>
<path class="bond-31 atom-31 atom-32" d="M 401.1,85.4 L 397.1,84.0" style="fill:none;fill-rule:evenodd;stroke:#0000FF;stroke-width:2.0px;stroke-linecap:butt;stroke-linejoin:miter;stroke-opacity:1"/>
<path class="bond-31 atom-31 atom-32" d="M 397.1,84.0 L 393.0,82.7" style="fill:none;fill-rule:evenodd;stroke:#000000;stroke-width:2.0px;stroke-linecap:butt;stroke-linejoin:miter;stroke-opacity:1"/>
<path class="bond-32 atom-32 atom-33" d="M 392.5,80.4 L 389.3,83.3" style="fill:none;fill-rule:evenodd;stroke:#000000;stroke-width:2.0px;stroke-linecap:butt;stroke-linejoin:miter;stroke-opacity:1"/>
<path class="bond-32 atom-32 atom-33" d="M 389.3,83.3 L 386.1,86.2" style="fill:none;fill-rule:evenodd;stroke:#0000FF;stroke-width:2.0px;stroke-linecap:butt;stroke-linejoin:miter;stroke-opacity:1"/>
<path class="bond-33 atom-33 atom-34" d="M 383.4,94.1 L 384.3,98.4" style="fill:none;fill-rule:evenodd;stroke:#0000FF;stroke-width:2.0px;stroke-linecap:butt;stroke-linejoin:miter;stroke-opacity:1"/>
<path class="bond-33 atom-33 atom-34" d="M 384.3,98.4 L 385.2,102.7" style="fill:none;fill-rule:evenodd;stroke:#000000;stroke-width:2.0px;stroke-linecap:butt;stroke-linejoin:miter;stroke-opacity:1"/>
<path class="bond-33 atom-33 atom-34" d="M 385.4,93.6 L 386.2,97.4" style="fill:none;fill-rule:evenodd;stroke:#0000FF;stroke-width:2.0px;stroke-linecap:butt;stroke-linejoin:miter;stroke-opacity:1"/>
<path class="bond-33 atom-33 atom-34" d="M 386.2,97.4 L 387.0,101.1" style="fill:none;fill-rule:evenodd;stroke:#000000;stroke-width:2.0px;stroke-linecap:butt;stroke-linejoin:miter;stroke-opacity:1"/>
<path class="bond-34 atom-24 atom-35" d="M 363.7,113.6 L 355.8,124.5" style="fill:none;fill-rule:evenodd;stroke:#000000;stroke-width:2.0px;stroke-linecap:butt;stroke-linejoin:miter;stroke-opacity:1"/>
<path class="bond-35 atom-35 atom-36" d="M 355.8,124.5 L 357.1,128.6" style="fill:none;fill-rule:evenodd;stroke:#000000;stroke-width:2.0px;stroke-linecap:butt;stroke-linejoin:miter;stroke-opacity:1"/>
<path class="bond-35 atom-35 atom-36" d="M 357.1,128.6 L 358.4,132.7" style="fill:none;fill-rule:evenodd;stroke:#FF0000;stroke-width:2.0px;stroke-linecap:butt;stroke-linejoin:miter;stroke-opacity:1"/>
<path class="bond-36 atom-35 atom-37" d="M 355.8,124.5 L 342.9,120.3" style="fill:none;fill-rule:evenodd;stroke:#000000;stroke-width:2.0px;stroke-linecap:butt;stroke-linejoin:miter;stroke-opacity:1"/>
<path class="bond-37 atom-37 atom-38" d="M 342.9,120.3 L 339.6,122.7" style="fill:none;fill-rule:evenodd;stroke:#000000;stroke-width:2.0px;stroke-linecap:butt;stroke-linejoin:miter;stroke-opacity:1"/>
<path class="bond-37 atom-37 atom-38" d="M 339.6,122.7 L 336.2,125.1" style="fill:none;fill-rule:evenodd;stroke:#FF0000;stroke-width:2.0px;stroke-linecap:butt;stroke-linejoin:miter;stroke-opacity:1"/>
<path class="bond-38 atom-10 atom-39" d="M 273.1,99.3 L 270.2,112.5" style="fill:none;fill-rule:evenodd;stroke:#000000;stroke-width:2.0px;stroke-linecap:butt;stroke-linejoin:miter;stroke-opacity:1"/>
<path class="bond-39 atom-39 atom-40" d="M 270.2,112.5 L 272.6,115.2" style="fill:none;fill-rule:evenodd;stroke:#000000;stroke-width:2.0px;stroke-linecap:butt;stroke-linejoin:miter;stroke-opacity:1"/>
<path class="bond-39 atom-39 atom-40" d="M 272.6,115.2 L 275.1,117.9" style="fill:none;fill-rule:evenodd;stroke:#FF0000;stroke-width:2.0px;stroke-linecap:butt;stroke-linejoin:miter;stroke-opacity:1"/>
<path class="bond-40 atom-39 atom-41" d="M 270.2,112.5 L 256.8,113.9" style="fill:none;fill-rule:evenodd;stroke:#000000;stroke-width:2.0px;stroke-linecap:butt;stroke-linejoin:miter;stroke-opacity:1"/>
<path class="bond-41 atom-41 atom-42" d="M 256.8,113.9 L 254.7,117.4" style="fill:none;fill-rule:evenodd;stroke:#000000;stroke-width:2.0px;stroke-linecap:butt;stroke-linejoin:miter;stroke-opacity:1"/>
<path class="bond-41 atom-41 atom-42" d="M 254.7,117.4 L 252.7,120.9" style="fill:none;fill-rule:evenodd;stroke:#FF0000;stroke-width:2.0px;stroke-linecap:butt;stroke-linejoin:miter;stroke-opacity:1"/>
<path class="bond-42 atom-7 atom-43" d="M 234.5,102.6 L 231.7,105.7" style="fill:none;fill-rule:evenodd;stroke:#0000FF;stroke-width:2.0px;stroke-linecap:butt;stroke-linejoin:miter;stroke-opacity:1"/>
<path class="bond-42 atom-7 atom-43" d="M 231.7,105.7 L 229.0,108.7" style="fill:none;fill-rule:evenodd;stroke:#000000;stroke-width:2.0px;stroke-linecap:butt;stroke-linejoin:miter;stroke-opacity:1"/>
<path class="bond-42 atom-7 atom-43" d="M 233.0,101.3 L 230.6,103.9" style="fill:none;fill-rule:evenodd;stroke:#0000FF;stroke-width:2.0px;stroke-linecap:butt;stroke-linejoin:miter;stroke-opacity:1"/>
<path class="bond-42 atom-7 atom-43" d="M 230.6,103.9 L 228.3,106.4" style="fill:none;fill-rule:evenodd;stroke:#000000;stroke-width:2.0px;stroke-linecap:butt;stroke-linejoin:miter;stroke-opacity:1"/>
<path class="bond-43 atom-43 atom-3" d="M 229.0,108.7 L 215.8,105.8" style="fill:none;fill-rule:evenodd;stroke:#000000;stroke-width:2.0px;stroke-linecap:butt;stroke-linejoin:miter;stroke-opacity:1"/>
<path class="bond-44 atom-41 atom-8" d="M 256.8,113.9 L 251.3,101.5" style="fill:none;fill-rule:evenodd;stroke:#000000;stroke-width:2.0px;stroke-linecap:butt;stroke-linejoin:miter;stroke-opacity:1"/>
<path class="bond-45 atom-37 atom-22" d="M 342.9,120.3 L 342.9,106.8" style="fill:none;fill-rule:evenodd;stroke:#000000;stroke-width:2.0px;stroke-linecap:butt;stroke-linejoin:miter;stroke-opacity:1"/>
<path class="bond-46 atom-34 atom-25" d="M 385.2,102.7 L 382.9,105.8" style="fill:none;fill-rule:evenodd;stroke:#000000;stroke-width:2.0px;stroke-linecap:butt;stroke-linejoin:miter;stroke-opacity:1"/>
<path class="bond-46 atom-34 atom-25" d="M 382.9,105.8 L 380.6,109.0" style="fill:none;fill-rule:evenodd;stroke:#0000FF;stroke-width:2.0px;stroke-linecap:butt;stroke-linejoin:miter;stroke-opacity:1"/>
<path class="bond-47 atom-34 atom-28" d="M 385.2,102.7 L 398.1,106.9" style="fill:none;fill-rule:evenodd;stroke:#000000;stroke-width:2.0px;stroke-linecap:butt;stroke-linejoin:miter;stroke-opacity:1"/>
<path d="M 206.5,115.8 L 206.7,115.9 L 207.1,115.4" style="fill:none;stroke:#000000;stroke-width:2.0px;stroke-linecap:butt;stroke-linejoin:miter;stroke-opacity:1;"/>
<path d="M 211.8,93.6 L 211.6,93.0 L 212.1,92.5" style="fill:none;stroke:#000000;stroke-width:2.0px;stroke-linecap:butt;stroke-linejoin:miter;stroke-opacity:1;"/>
<path d="M 220.2,83.4 L 220.7,82.9 L 221.4,83.1" style="fill:none;stroke:#000000;stroke-width:2.0px;stroke-linecap:butt;stroke-linejoin:miter;stroke-opacity:1;"/>
<path d="M 233.3,85.6 L 233.9,85.8 L 234.0,86.0" style="fill:none;stroke:#000000;stroke-width:2.0px;stroke-linecap:butt;stroke-linejoin:miter;stroke-opacity:1;"/>
<path d="M 284.8,94.1 L 285.4,93.8 L 285.5,93.6" style="fill:none;stroke:#000000;stroke-width:2.0px;stroke-linecap:butt;stroke-linejoin:miter;stroke-opacity:1;"/>
<path d="M 332.0,98.6 L 332.0,98.8 L 332.6,99.2" style="fill:none;stroke:#000000;stroke-width:2.0px;stroke-linecap:butt;stroke-linejoin:miter;stroke-opacity:1;"/>
<path d="M 385.1,124.4 L 385.2,124.6 L 385.4,124.5" style="fill:none;stroke:#000000;stroke-width:2.0px;stroke-linecap:butt;stroke-linejoin:miter;stroke-opacity:1;"/>
<path d="M 392.8,80.5 L 392.5,80.4 L 392.4,80.6" style="fill:none;stroke:#000000;stroke-width:2.0px;stroke-linecap:butt;stroke-linejoin:miter;stroke-opacity:1;"/>
<path d="M 229.1,108.5 L 229.0,108.7 L 228.3,108.5" style="fill:none;stroke:#000000;stroke-width:2.0px;stroke-linecap:butt;stroke-linejoin:miter;stroke-opacity:1;"/>
<path class="atom-0" d="M 177.1 108.8 L 178.2 108.8 L 178.2 112.4 L 182.6 112.4 L 182.6 108.8 L 183.7 108.8 L 183.7 117.3 L 182.6 117.3 L 182.6 113.3 L 178.2 113.3 L 178.2 117.3 L 177.1 117.3 L 177.1 108.8 " fill="#0000FF"/>
<path class="atom-0" d="M 185.4 117.0 Q 185.6 116.4, 186.1 116.1 Q 186.6 115.8, 187.3 115.8 Q 188.1 115.8, 188.6 116.3 Q 189.0 116.8, 189.0 117.6 Q 189.0 118.4, 188.4 119.2 Q 187.8 120.0, 186.6 120.9 L 189.1 120.9 L 189.1 121.5 L 185.4 121.5 L 185.4 121.0 Q 186.4 120.2, 187.0 119.7 Q 187.7 119.1, 188.0 118.6 Q 188.3 118.1, 188.3 117.6 Q 188.3 117.1, 188.0 116.8 Q 187.7 116.5, 187.3 116.5 Q 186.8 116.5, 186.5 116.7 Q 186.2 116.8, 186.0 117.2 L 185.4 117.0 " fill="#0000FF"/>
<path class="atom-0" d="M 191.6 108.8 L 194.4 113.3 Q 194.7 113.7, 195.1 114.5 Q 195.5 115.3, 195.6 115.4 L 195.6 108.8 L 196.7 108.8 L 196.7 117.3 L 195.5 117.3 L 192.5 112.4 Q 192.2 111.8, 191.8 111.1 Q 191.5 110.5, 191.4 110.3 L 191.4 117.3 L 190.2 117.3 L 190.2 108.8 L 191.6 108.8 " fill="#0000FF"/>
<path class="atom-2" d="M 206.9 128.8 Q 206.9 126.7, 207.9 125.6 Q 209.0 124.4, 210.8 124.4 Q 212.7 124.4, 213.7 125.6 Q 214.7 126.7, 214.7 128.8 Q 214.7 130.8, 213.7 132.0 Q 212.7 133.2, 210.8 133.2 Q 209.0 133.2, 207.9 132.0 Q 206.9 130.8, 206.9 128.8 M 210.8 132.2 Q 212.1 132.2, 212.8 131.3 Q 213.5 130.5, 213.5 128.8 Q 213.5 127.1, 212.8 126.3 Q 212.1 125.4, 210.8 125.4 Q 209.5 125.4, 208.8 126.2 Q 208.1 127.1, 208.1 128.8 Q 208.1 130.5, 208.8 131.3 Q 209.5 132.2, 210.8 132.2 " fill="#FF0000"/>
<path class="atom-7" d="M 236.2 94.4 L 239.0 98.9 Q 239.2 99.3, 239.7 100.1 Q 240.1 101.0, 240.2 101.0 L 240.2 94.4 L 241.3 94.4 L 241.3 102.9 L 240.1 102.9 L 237.1 98.0 Q 236.8 97.4, 236.4 96.7 Q 236.1 96.1, 235.9 95.9 L 235.9 102.9 L 234.8 102.9 L 234.8 94.4 L 236.2 94.4 " fill="#0000FF"/>
<path class="atom-7" d="M 242.9 95.9 L 244.4 95.9 L 244.4 94.4 L 245.0 94.4 L 245.0 95.9 L 246.6 95.9 L 246.6 96.5 L 245.0 96.5 L 245.0 98.1 L 244.4 98.1 L 244.4 96.5 L 242.9 96.5 L 242.9 95.9 " fill="#0000FF"/>
<path class="atom-9" d="M 257.5 92.5 Q 257.5 90.4, 258.5 89.3 Q 259.5 88.2, 261.4 88.2 Q 263.2 88.2, 264.3 89.3 Q 265.3 90.4, 265.3 92.5 Q 265.3 94.6, 264.2 95.7 Q 263.2 96.9, 261.4 96.9 Q 259.5 96.9, 258.5 95.7 Q 257.5 94.6, 257.5 92.5 M 261.4 95.9 Q 262.7 95.9, 263.4 95.1 Q 264.1 94.2, 264.1 92.5 Q 264.1 90.8, 263.4 90.0 Q 262.7 89.1, 261.4 89.1 Q 260.1 89.1, 259.4 90.0 Q 258.7 90.8, 258.7 92.5 Q 258.7 94.2, 259.4 95.1 Q 260.1 95.9, 261.4 95.9 " fill="#FF0000"/>
<path class="atom-12" d="M 283.0 80.4 Q 283.0 78.3, 284.0 77.2 Q 285.0 76.0, 286.9 76.0 Q 288.8 76.0, 289.8 77.2 Q 290.8 78.3, 290.8 80.4 Q 290.8 82.4, 289.8 83.6 Q 288.7 84.8, 286.9 84.8 Q 285.0 84.8, 284.0 83.6 Q 283.0 82.4, 283.0 80.4 M 286.9 83.8 Q 288.2 83.8, 288.9 82.9 Q 289.6 82.1, 289.6 80.4 Q 289.6 78.7, 288.9 77.9 Q 288.2 77.0, 286.9 77.0 Q 285.6 77.0, 284.9 77.8 Q 284.2 78.7, 284.2 80.4 Q 284.2 82.1, 284.9 82.9 Q 285.6 83.8, 286.9 83.8 " fill="#FF0000"/>
<path class="atom-13" d="M 299.0 70.6 Q 300.5 70.6, 301.2 71.3 Q 302.0 71.9, 302.0 73.1 Q 302.0 74.3, 301.2 75.0 Q 300.5 75.6, 299.0 75.6 L 297.7 75.6 L 297.7 79.1 L 296.5 79.1 L 296.5 70.6 L 299.0 70.6 M 299.0 74.7 Q 299.9 74.7, 300.3 74.3 Q 300.8 73.9, 300.8 73.1 Q 300.8 72.4, 300.3 72.0 Q 299.9 71.6, 299.0 71.6 L 297.7 71.6 L 297.7 74.7 L 299.0 74.7 " fill="#FF7F00"/>
<path class="atom-14" d="M 289.9 62.5 Q 289.9 60.5, 290.9 59.3 Q 291.9 58.2, 293.8 58.2 Q 295.7 58.2, 296.7 59.3 Q 297.7 60.5, 297.7 62.5 Q 297.7 64.6, 296.7 65.8 Q 295.6 66.9, 293.8 66.9 Q 291.9 66.9, 290.9 65.8 Q 289.9 64.6, 289.9 62.5 M 293.8 66.0 Q 295.1 66.0, 295.8 65.1 Q 296.5 64.2, 296.5 62.5 Q 296.5 60.8, 295.8 60.0 Q 295.1 59.2, 293.8 59.2 Q 292.5 59.2, 291.8 60.0 Q 291.1 60.8, 291.1 62.5 Q 291.1 64.2, 291.8 65.1 Q 292.5 66.0, 293.8 66.0 " fill="#FF0000"/>
<path class="atom-15" d="M 300.8 87.3 Q 300.8 85.2, 301.8 84.1 Q 302.8 82.9, 304.7 82.9 Q 306.6 82.9, 307.6 84.1 Q 308.6 85.2, 308.6 87.3 Q 308.6 89.3, 307.6 90.5 Q 306.6 91.7, 304.7 91.7 Q 302.8 91.7, 301.8 90.5 Q 300.8 89.3, 300.8 87.3 M 304.7 90.7 Q 306.0 90.7, 306.7 89.8 Q 307.4 89.0, 307.4 87.3 Q 307.4 85.6, 306.7 84.7 Q 306.0 83.9, 304.7 83.9 Q 303.4 83.9, 302.7 84.7 Q 302.0 85.6, 302.0 87.3 Q 302.0 89.0, 302.7 89.8 Q 303.4 90.7, 304.7 90.7 " fill="#FF0000"/>
<path class="atom-15" d="M 309.9 83.0 L 311.1 83.0 L 311.1 86.6 L 315.4 86.6 L 315.4 83.0 L 316.6 83.0 L 316.6 91.5 L 315.4 91.5 L 315.4 87.6 L 311.1 87.6 L 311.1 91.5 L 309.9 91.5 L 309.9 83.0 " fill="#FF0000"/>
<path class="atom-16" d="M 307.7 69.4 Q 307.7 67.4, 308.7 66.2 Q 309.7 65.1, 311.6 65.1 Q 313.5 65.1, 314.5 66.2 Q 315.5 67.4, 315.5 69.4 Q 315.5 71.5, 314.5 72.7 Q 313.5 73.8, 311.6 73.8 Q 309.7 73.8, 308.7 72.7 Q 307.7 71.5, 307.7 69.4 M 311.6 72.9 Q 312.9 72.9, 313.6 72.0 Q 314.3 71.1, 314.3 69.4 Q 314.3 67.7, 313.6 66.9 Q 312.9 66.1, 311.6 66.1 Q 310.3 66.1, 309.6 66.9 Q 308.9 67.7, 308.9 69.4 Q 308.9 71.1, 309.6 72.0 Q 310.3 72.9, 311.6 72.9 " fill="#FF0000"/>
<path class="atom-17" d="M 322.3 73.1 Q 323.8 73.1, 324.5 73.8 Q 325.2 74.4, 325.2 75.6 Q 325.2 76.8, 324.5 77.5 Q 323.7 78.1, 322.3 78.1 L 321.0 78.1 L 321.0 81.6 L 319.8 81.6 L 319.8 73.1 L 322.3 73.1 M 322.3 77.2 Q 323.2 77.2, 323.6 76.8 Q 324.0 76.4, 324.0 75.6 Q 324.0 74.9, 323.6 74.5 Q 323.2 74.1, 322.3 74.1 L 321.0 74.1 L 321.0 77.2 L 322.3 77.2 " fill="#FF7F00"/>
<path class="atom-18" d="M 326.6 66.5 Q 326.6 64.4, 327.6 63.3 Q 328.6 62.1, 330.5 62.1 Q 332.4 62.1, 333.4 63.3 Q 334.4 64.4, 334.4 66.5 Q 334.4 68.5, 333.4 69.7 Q 332.4 70.9, 330.5 70.9 Q 328.6 70.9, 327.6 69.7 Q 326.6 68.5, 326.6 66.5 M 330.5 69.9 Q 331.8 69.9, 332.5 69.0 Q 333.2 68.2, 333.2 66.5 Q 333.2 64.8, 332.5 64.0 Q 331.8 63.1, 330.5 63.1 Q 329.2 63.1, 328.5 63.9 Q 327.8 64.8, 327.8 66.5 Q 327.8 68.2, 328.5 69.0 Q 329.2 69.9, 330.5 69.9 " fill="#FF0000"/>
<path class="atom-19" d="M 302.3 84.1 L 303.4 84.1 L 303.4 87.7 L 307.8 87.7 L 307.8 84.1 L 308.9 84.1 L 308.9 92.6 L 307.8 92.6 L 307.8 88.7 L 303.4 88.7 L 303.4 92.6 L 302.3 92.6 L 302.3 84.1 " fill="#FF0000"/>
<path class="atom-19" d="M 310.7 88.3 Q 310.7 86.3, 311.7 85.1 Q 312.7 84.0, 314.6 84.0 Q 316.4 84.0, 317.5 85.1 Q 318.5 86.3, 318.5 88.3 Q 318.5 90.4, 317.4 91.6 Q 316.4 92.7, 314.6 92.7 Q 312.7 92.7, 311.7 91.6 Q 310.7 90.4, 310.7 88.3 M 314.6 91.8 Q 315.9 91.8, 316.6 90.9 Q 317.3 90.0, 317.3 88.3 Q 317.3 86.6, 316.6 85.8 Q 315.9 85.0, 314.6 85.0 Q 313.3 85.0, 312.6 85.8 Q 311.9 86.6, 311.9 88.3 Q 311.9 90.0, 312.6 90.9 Q 313.3 91.8, 314.6 91.8 " fill="#FF0000"/>
<path class="atom-20" d="M 329.6 85.4 Q 329.6 83.3, 330.6 82.2 Q 331.6 81.0, 333.5 81.0 Q 335.3 81.0, 336.4 82.2 Q 337.4 83.3, 337.4 85.4 Q 337.4 87.4, 336.3 88.6 Q 335.3 89.8, 333.5 89.8 Q 331.6 89.8, 330.6 88.6 Q 329.6 87.4, 329.6 85.4 M 333.5 88.8 Q 334.8 88.8, 335.5 87.9 Q 336.2 87.1, 336.2 85.4 Q 336.2 83.7, 335.5 82.9 Q 334.8 82.0, 333.5 82.0 Q 332.2 82.0, 331.5 82.8 Q 330.8 83.7, 330.8 85.4 Q 330.8 87.1, 331.5 87.9 Q 332.2 88.8, 333.5 88.8 " fill="#FF0000"/>
<path class="atom-23" d="M 351.9 102.6 Q 351.9 100.6, 352.9 99.5 Q 353.9 98.3, 355.8 98.3 Q 357.7 98.3, 358.7 99.5 Q 359.7 100.6, 359.7 102.6 Q 359.7 104.7, 358.7 105.9 Q 357.7 107.0, 355.8 107.0 Q 353.9 107.0, 352.9 105.9 Q 351.9 104.7, 351.9 102.6 M 355.8 106.1 Q 357.1 106.1, 357.8 105.2 Q 358.5 104.3, 358.5 102.6 Q 358.5 101.0, 357.8 100.1 Q 357.1 99.3, 355.8 99.3 Q 354.5 99.3, 353.8 100.1 Q 353.1 101.0, 353.1 102.6 Q 353.1 104.4, 353.8 105.2 Q 354.5 106.1, 355.8 106.1 " fill="#FF0000"/>
<path class="atom-25" d="M 375.4 109.4 L 378.2 113.9 Q 378.4 114.3, 378.9 115.1 Q 379.3 115.9, 379.4 116.0 L 379.4 109.4 L 380.5 109.4 L 380.5 117.9 L 379.3 117.9 L 376.3 112.9 Q 376.0 112.4, 375.6 111.7 Q 375.3 111.0, 375.1 110.8 L 375.1 117.9 L 374.0 117.9 L 374.0 109.4 L 375.4 109.4 " fill="#0000FF"/>
<path class="atom-27" d="M 396.2 116.2 L 399.0 120.7 Q 399.2 121.1, 399.7 121.9 Q 400.1 122.7, 400.2 122.8 L 400.2 116.2 L 401.3 116.2 L 401.3 124.7 L 400.1 124.7 L 397.1 119.8 Q 396.8 119.2, 396.4 118.5 Q 396.1 117.9, 395.9 117.7 L 395.9 124.7 L 394.8 124.7 L 394.8 116.2 L 396.2 116.2 " fill="#0000FF"/>
<path class="atom-30" d="M 419.1 97.8 L 421.9 102.3 Q 422.2 102.8, 422.6 103.6 Q 423.1 104.4, 423.1 104.4 L 423.1 97.8 L 424.2 97.8 L 424.2 106.3 L 423.1 106.3 L 420.1 101.4 Q 419.7 100.8, 419.4 100.2 Q 419.0 99.5, 418.9 99.3 L 418.9 106.3 L 417.8 106.3 L 417.8 97.8 L 419.1 97.8 " fill="#0000FF"/>
<path class="atom-30" d="M 425.9 97.8 L 427.0 97.8 L 427.0 101.4 L 431.4 101.4 L 431.4 97.8 L 432.5 97.8 L 432.5 106.3 L 431.4 106.3 L 431.4 102.4 L 427.0 102.4 L 427.0 106.3 L 425.9 106.3 L 425.9 97.8 " fill="#0000FF"/>
<path class="atom-30" d="M 434.2 106.0 Q 434.4 105.5, 434.9 105.2 Q 435.4 104.9, 436.0 104.9 Q 436.9 104.9, 437.4 105.4 Q 437.8 105.8, 437.8 106.6 Q 437.8 107.5, 437.2 108.2 Q 436.6 109.0, 435.3 109.9 L 437.9 109.9 L 437.9 110.6 L 434.2 110.6 L 434.2 110.0 Q 435.2 109.3, 435.8 108.7 Q 436.5 108.2, 436.8 107.7 Q 437.1 107.2, 437.1 106.7 Q 437.1 106.1, 436.8 105.8 Q 436.5 105.5, 436.0 105.5 Q 435.6 105.5, 435.3 105.7 Q 435.0 105.9, 434.8 106.3 L 434.2 106.0 " fill="#0000FF"/>
<path class="atom-31" d="M 403.5 80.4 L 406.3 84.9 Q 406.6 85.3, 407.0 86.1 Q 407.5 86.9, 407.5 87.0 L 407.5 80.4 L 408.6 80.4 L 408.6 88.9 L 407.4 88.9 L 404.5 84.0 Q 404.1 83.4, 403.7 82.7 Q 403.4 82.1, 403.3 81.9 L 403.3 88.9 L 402.2 88.9 L 402.2 80.4 L 403.5 80.4 " fill="#0000FF"/>
<path class="atom-33" d="M 380.6 85.2 L 383.4 89.7 Q 383.6 90.1, 384.1 91.0 Q 384.5 91.8, 384.6 91.8 L 384.6 85.2 L 385.7 85.2 L 385.7 93.7 L 384.5 93.7 L 381.5 88.8 Q 381.2 88.2, 380.8 87.5 Q 380.4 86.9, 380.3 86.7 L 380.3 93.7 L 379.2 93.7 L 379.2 85.2 L 380.6 85.2 " fill="#0000FF"/>
<path class="atom-36" d="M 356.0 137.4 Q 356.0 135.4, 357.0 134.2 Q 358.0 133.1, 359.9 133.1 Q 361.8 133.1, 362.8 134.2 Q 363.8 135.4, 363.8 137.4 Q 363.8 139.5, 362.8 140.6 Q 361.8 141.8, 359.9 141.8 Q 358.0 141.8, 357.0 140.6 Q 356.0 139.5, 356.0 137.4 M 359.9 140.8 Q 361.2 140.8, 361.9 140.0 Q 362.6 139.1, 362.6 137.4 Q 362.6 135.7, 361.9 134.9 Q 361.2 134.0, 359.9 134.0 Q 358.6 134.0, 357.9 134.9 Q 357.2 135.7, 357.2 137.4 Q 357.2 139.1, 357.9 140.0 Q 358.6 140.8, 359.9 140.8 " fill="#FF0000"/>
<path class="atom-36" d="M 365.1 133.2 L 366.3 133.2 L 366.3 136.8 L 370.6 136.8 L 370.6 133.2 L 371.8 133.2 L 371.8 141.7 L 370.6 141.7 L 370.6 137.7 L 366.3 137.7 L 366.3 141.7 L 365.1 141.7 L 365.1 133.2 " fill="#FF0000"/>
<path class="atom-38" d="M 319.7 124.0 L 320.8 124.0 L 320.8 127.6 L 325.2 127.6 L 325.2 124.0 L 326.3 124.0 L 326.3 132.5 L 325.2 132.5 L 325.2 128.6 L 320.8 128.6 L 320.8 132.5 L 319.7 132.5 L 319.7 124.0 " fill="#FF0000"/>
<path class="atom-38" d="M 328.0 128.2 Q 328.0 126.2, 329.1 125.1 Q 330.1 123.9, 331.9 123.9 Q 333.8 123.9, 334.8 125.1 Q 335.8 126.2, 335.8 128.2 Q 335.8 130.3, 334.8 131.5 Q 333.8 132.6, 331.9 132.6 Q 330.1 132.6, 329.1 131.5 Q 328.0 130.3, 328.0 128.2 M 331.9 131.7 Q 333.2 131.7, 333.9 130.8 Q 334.6 129.9, 334.6 128.2 Q 334.6 126.6, 333.9 125.7 Q 333.2 124.9, 331.9 124.9 Q 330.7 124.9, 329.9 125.7 Q 329.2 126.6, 329.2 128.2 Q 329.2 130.0, 329.9 130.8 Q 330.7 131.7, 331.9 131.7 " fill="#FF0000"/>
<path class="atom-40" d="M 275.3 122.6 Q 275.3 120.5, 276.4 119.4 Q 277.4 118.3, 279.2 118.3 Q 281.1 118.3, 282.1 119.4 Q 283.1 120.5, 283.1 122.6 Q 283.1 124.6, 282.1 125.8 Q 281.1 127.0, 279.2 127.0 Q 277.4 127.0, 276.4 125.8 Q 275.3 124.7, 275.3 122.6 M 279.2 126.0 Q 280.5 126.0, 281.2 125.2 Q 281.9 124.3, 281.9 122.6 Q 281.9 120.9, 281.2 120.1 Q 280.5 119.2, 279.2 119.2 Q 277.9 119.2, 277.2 120.1 Q 276.5 120.9, 276.5 122.6 Q 276.5 124.3, 277.2 125.2 Q 277.9 126.0, 279.2 126.0 " fill="#FF0000"/>
<path class="atom-40" d="M 284.5 118.4 L 285.6 118.4 L 285.6 122.0 L 290.0 122.0 L 290.0 118.4 L 291.1 118.4 L 291.1 126.8 L 290.0 126.8 L 290.0 122.9 L 285.6 122.9 L 285.6 126.8 L 284.5 126.8 L 284.5 118.4 " fill="#FF0000"/>
<path class="atom-42" d="M 237.7 121.4 L 238.8 121.4 L 238.8 125.0 L 243.2 125.0 L 243.2 121.4 L 244.3 121.4 L 244.3 129.9 L 243.2 129.9 L 243.2 125.9 L 238.8 125.9 L 238.8 129.9 L 237.7 129.9 L 237.7 121.4 " fill="#FF0000"/>
<path class="atom-42" d="M 246.1 125.6 Q 246.1 123.5, 247.1 122.4 Q 248.1 121.3, 250.0 121.3 Q 251.9 121.3, 252.9 122.4 Q 253.9 123.5, 253.9 125.6 Q 253.9 127.6, 252.8 128.8 Q 251.8 130.0, 250.0 130.0 Q 248.1 130.0, 247.1 128.8 Q 246.1 127.7, 246.1 125.6 M 250.0 129.0 Q 251.3 129.0, 252.0 128.2 Q 252.7 127.3, 252.7 125.6 Q 252.7 123.9, 252.0 123.1 Q 251.3 122.2, 250.0 122.2 Q 248.7 122.2, 248.0 123.1 Q 247.3 123.9, 247.3 125.6 Q 247.3 127.3, 248.0 128.2 Q 248.7 129.0, 250.0 129.0 " fill="#FF0000"/>
<path d="M 445.0,96.0 L 445.0,104.0" style="fill:none;fill-rule:evenodd;stroke:#000000;stroke-width:2.0px;stroke-linecap:butt;stroke-linejoin:miter;stroke-opacity:1"/>
<path d="M 441.0,100.0 L 449.0,100.0" style="fill:none;fill-rule:evenodd;stroke:#000000;stroke-width:2.0px;stroke-linecap:butt;stroke-linejoin:miter;stroke-opacity:1"/>
<path class="bond-48 atom-44 atom-45" d="M 483.3,101.6 L 479.6,103.8" style="fill:none;fill-rule:evenodd;stroke:#FF0000;stroke-width:2.0px;stroke-linecap:butt;stroke-linejoin:miter;stroke-opacity:1"/>
<path class="bond-48 atom-44 atom-45" d="M 479.6,103.8 L 475.9,105.9" style="fill:none;fill-rule:evenodd;stroke:#000000;stroke-width:2.0px;stroke-linecap:butt;stroke-linejoin:miter;stroke-opacity:1"/>
<path class="bond-48 atom-44 atom-45" d="M 482.3,99.9 L 478.6,102.0" style="fill:none;fill-rule:evenodd;stroke:#FF0000;stroke-width:2.0px;stroke-linecap:butt;stroke-linejoin:miter;stroke-opacity:1"/>
<path class="bond-48 atom-44 atom-45" d="M 478.6,102.0 L 475.9,103.6" style="fill:none;fill-rule:evenodd;stroke:#000000;stroke-width:2.0px;stroke-linecap:butt;stroke-linejoin:miter;stroke-opacity:1"/>
<path class="bond-49 atom-45 atom-46" d="M 475.9,105.9 L 472.1,103.8" style="fill:none;fill-rule:evenodd;stroke:#000000;stroke-width:2.0px;stroke-linecap:butt;stroke-linejoin:miter;stroke-opacity:1"/>
<path class="bond-49 atom-45 atom-46" d="M 472.1,103.8 L 468.4,101.6" style="fill:none;fill-rule:evenodd;stroke:#FF0000;stroke-width:2.0px;stroke-linecap:butt;stroke-linejoin:miter;stroke-opacity:1"/>
<path class="atom-0" d="M 483.2 98.3 Q 483.2 96.3, 484.2 95.1 Q 485.2 94.0, 487.1 94.0 Q 489.0 94.0, 490.0 95.1 Q 491.0 96.3, 491.0 98.3 Q 491.0 100.4, 490.0 101.5 Q 488.9 102.7, 487.1 102.7 Q 485.2 102.7, 484.2 101.5 Q 483.2 100.4, 483.2 98.3 M 487.1 101.8 Q 488.4 101.8, 489.1 100.9 Q 489.8 100.0, 489.8 98.3 Q 489.8 96.6, 489.1 95.8 Q 488.4 94.9, 487.1 94.9 Q 485.8 94.9, 485.1 95.8 Q 484.4 96.6, 484.4 98.3 Q 484.4 100.0, 485.1 100.9 Q 485.8 101.8, 487.1 101.8 " fill="#FF0000"/>
<path class="atom-2" d="M 451.9 95.0 L 453.0 95.0 L 453.0 98.6 L 457.4 98.6 L 457.4 95.0 L 458.5 95.0 L 458.5 103.5 L 457.4 103.5 L 457.4 99.5 L 453.0 99.5 L 453.0 103.5 L 451.9 103.5 L 451.9 95.0 " fill="#FF0000"/>
<path class="atom-2" d="M 460.3 99.2 Q 460.3 97.1, 461.3 96.0 Q 462.3 94.9, 464.2 94.9 Q 466.0 94.9, 467.0 96.0 Q 468.1 97.1, 468.1 99.2 Q 468.1 101.3, 467.0 102.4 Q 466.0 103.6, 464.2 103.6 Q 462.3 103.6, 461.3 102.4 Q 460.3 101.3, 460.3 99.2 M 464.2 102.6 Q 465.4 102.6, 466.1 101.8 Q 466.9 100.9, 466.9 99.2 Q 466.9 97.5, 466.1 96.7 Q 465.4 95.8, 464.2 95.8 Q 462.9 95.8, 462.1 96.7 Q 461.5 97.5, 461.5 99.2 Q 461.5 100.9, 462.1 101.8 Q 462.9 102.6, 464.2 102.6 " fill="#FF0000"/>
<path class="bond-50 atom-47 atom-48" d="M 555.2,74.6 L 552.9,77.7" style="fill:none;fill-rule:evenodd;stroke:#0000FF;stroke-width:2.0px;stroke-linecap:butt;stroke-linejoin:miter;stroke-opacity:1"/>
<path class="bond-50 atom-47 atom-48" d="M 552.9,77.7 L 550.5,80.8" style="fill:none;fill-rule:evenodd;stroke:#000000;stroke-width:2.0px;stroke-linecap:butt;stroke-linejoin:miter;stroke-opacity:1"/>
<path class="bond-51 atom-48 atom-49" d="M 551.2,79.9 L 546.4,79.3" style="fill:none;fill-rule:evenodd;stroke:#000000;stroke-width:2.0px;stroke-linecap:butt;stroke-linejoin:miter;stroke-opacity:1"/>
<path class="bond-51 atom-48 atom-49" d="M 546.4,79.3 L 541.5,78.7" style="fill:none;fill-rule:evenodd;stroke:#FF0000;stroke-width:2.0px;stroke-linecap:butt;stroke-linejoin:miter;stroke-opacity:1"/>
<path class="bond-51 atom-48 atom-49" d="M 551.0,81.9 L 546.1,81.3" style="fill:none;fill-rule:evenodd;stroke:#000000;stroke-width:2.0px;stroke-linecap:butt;stroke-linejoin:miter;stroke-opacity:1"/>
<path class="bond-51 atom-48 atom-49" d="M 546.1,81.3 L 541.2,80.8" style="fill:none;fill-rule:evenodd;stroke:#FF0000;stroke-width:2.0px;stroke-linecap:butt;stroke-linejoin:miter;stroke-opacity:1"/>
<path class="bond-52 atom-48 atom-50" d="M 550.5,80.8 L 555.9,93.2" style="fill:none;fill-rule:evenodd;stroke:#000000;stroke-width:2.0px;stroke-linecap:butt;stroke-linejoin:miter;stroke-opacity:1"/>
<path class="bond-53 atom-50 atom-51" d="M 555.9,93.2 L 569.3,94.8" style="fill:none;fill-rule:evenodd;stroke:#000000;stroke-width:2.0px;stroke-linecap:butt;stroke-linejoin:miter;stroke-opacity:1"/>
<path class="bond-53 atom-50 atom-51" d="M 556.8,95.4 L 567.9,96.7" style="fill:none;fill-rule:evenodd;stroke:#000000;stroke-width:2.0px;stroke-linecap:butt;stroke-linejoin:miter;stroke-opacity:1"/>
<path class="bond-54 atom-51 atom-52" d="M 569.3,94.8 L 571.0,98.7" style="fill:none;fill-rule:evenodd;stroke:#000000;stroke-width:2.0px;stroke-linecap:butt;stroke-linejoin:miter;stroke-opacity:1"/>
<path class="bond-54 atom-51 atom-52" d="M 571.0,98.7 L 572.7,102.6" style="fill:none;fill-rule:evenodd;stroke:#0000FF;stroke-width:2.0px;stroke-linecap:butt;stroke-linejoin:miter;stroke-opacity:1"/>
<path class="bond-55 atom-52 atom-53" d="M 578.3,107.6 L 583.2,108.2" style="fill:none;fill-rule:evenodd;stroke:#0000FF;stroke-width:2.0px;stroke-linecap:butt;stroke-linejoin:miter;stroke-opacity:1"/>
<path class="bond-55 atom-52 atom-53" d="M 583.2,108.2 L 588.1,108.8" style="fill:none;fill-rule:evenodd;stroke:#000000;stroke-width:2.0px;stroke-linecap:butt;stroke-linejoin:miter;stroke-opacity:1"/>
<path class="bond-56 atom-53 atom-54" d="M 588.1,108.8 L 590.6,106.1" style="fill:none;fill-rule:evenodd;stroke:#000000;stroke-width:2.0px;stroke-linecap:butt;stroke-linejoin:miter;stroke-opacity:1"/>
<path class="bond-56 atom-53 atom-54" d="M 590.6,106.1 L 593.0,103.4" style="fill:none;fill-rule:evenodd;stroke:#FF0000;stroke-width:2.0px;stroke-linecap:butt;stroke-linejoin:miter;stroke-opacity:1"/>
<path class="bond-57 atom-54 atom-55" d="M 601.6,100.8 L 605.6,102.6" style="fill:none;fill-rule:evenodd;stroke:#FF0000;stroke-width:2.0px;stroke-linecap:butt;stroke-linejoin:miter;stroke-opacity:1"/>
<path class="bond-57 atom-54 atom-55" d="M 605.6,102.6 L 609.6,104.4" style="fill:none;fill-rule:evenodd;stroke:#000000;stroke-width:2.0px;stroke-linecap:butt;stroke-linejoin:miter;stroke-opacity:1"/>
<path class="bond-58 atom-55 atom-56" d="M 609.6,104.4 L 621.4,97.8" style="fill:none;fill-rule:evenodd;stroke:#000000;stroke-width:2.0px;stroke-linecap:butt;stroke-linejoin:miter;stroke-opacity:1"/>
<path class="bond-59 atom-56 atom-57" d="M 621.4,97.8 L 621.4,93.4" style="fill:none;fill-rule:evenodd;stroke:#000000;stroke-width:2.0px;stroke-linecap:butt;stroke-linejoin:miter;stroke-opacity:1"/>
<path class="bond-59 atom-56 atom-57" d="M 621.4,93.4 L 621.5,89.1" style="fill:none;fill-rule:evenodd;stroke:#FF0000;stroke-width:2.0px;stroke-linecap:butt;stroke-linejoin:miter;stroke-opacity:1"/>
<path class="bond-60 atom-57 atom-58" d="M 625.8,81.9 L 628.0,80.6" style="fill:none;fill-rule:evenodd;stroke:#FF0000;stroke-width:2.0px;stroke-linecap:butt;stroke-linejoin:miter;stroke-opacity:1"/>
<path class="bond-60 atom-57 atom-58" d="M 628.0,80.6 L 630.2,79.4" style="fill:none;fill-rule:evenodd;stroke:#FF7F00;stroke-width:2.0px;stroke-linecap:butt;stroke-linejoin:miter;stroke-opacity:1"/>
<path class="bond-61 atom-58 atom-59" d="M 631.6,72.5 L 630.9,71.3" style="fill:none;fill-rule:evenodd;stroke:#FF7F00;stroke-width:2.0px;stroke-linecap:butt;stroke-linejoin:miter;stroke-opacity:1"/>
<path class="bond-61 atom-58 atom-59" d="M 630.9,71.3 L 630.3,70.1" style="fill:none;fill-rule:evenodd;stroke:#FF0000;stroke-width:2.0px;stroke-linecap:butt;stroke-linejoin:miter;stroke-opacity:1"/>
<path class="bond-61 atom-58 atom-59" d="M 629.8,73.5 L 629.2,72.3" style="fill:none;fill-rule:evenodd;stroke:#FF7F00;stroke-width:2.0px;stroke-linecap:butt;stroke-linejoin:miter;stroke-opacity:1"/>
<path class="bond-61 atom-58 atom-59" d="M 629.2,72.3 L 628.5,71.1" style="fill:none;fill-rule:evenodd;stroke:#FF0000;stroke-width:2.0px;stroke-linecap:butt;stroke-linejoin:miter;stroke-opacity:1"/>
<path class="bond-62 atom-58 atom-60" d="M 635.9,82.2 L 636.6,83.5" style="fill:none;fill-rule:evenodd;stroke:#FF7F00;stroke-width:2.0px;stroke-linecap:butt;stroke-linejoin:miter;stroke-opacity:1"/>
<path class="bond-62 atom-58 atom-60" d="M 636.6,83.5 L 637.3,84.8" style="fill:none;fill-rule:evenodd;stroke:#FF0000;stroke-width:2.0px;stroke-linecap:butt;stroke-linejoin:miter;stroke-opacity:1"/>
<path class="bond-63 atom-58 atom-61" d="M 636.4,75.9 L 638.6,74.6" style="fill:none;fill-rule:evenodd;stroke:#FF7F00;stroke-width:2.0px;stroke-linecap:butt;stroke-linejoin:miter;stroke-opacity:1"/>
<path class="bond-63 atom-58 atom-61" d="M 638.6,74.6 L 640.8,73.4" style="fill:none;fill-rule:evenodd;stroke:#FF0000;stroke-width:2.0px;stroke-linecap:butt;stroke-linejoin:miter;stroke-opacity:1"/>
<path class="bond-64 atom-61 atom-62" d="M 649.4,73.5 L 651.5,74.8" style="fill:none;fill-rule:evenodd;stroke:#FF0000;stroke-width:2.0px;stroke-linecap:butt;stroke-linejoin:miter;stroke-opacity:1"/>
<path class="bond-64 atom-61 atom-62" d="M 651.5,74.8 L 653.6,76.0" style="fill:none;fill-rule:evenodd;stroke:#FF7F00;stroke-width:2.0px;stroke-linecap:butt;stroke-linejoin:miter;stroke-opacity:1"/>
<path class="bond-65 atom-62 atom-63" d="M 660.3,73.8 L 661.0,72.7" style="fill:none;fill-rule:evenodd;stroke:#FF7F00;stroke-width:2.0px;stroke-linecap:butt;stroke-linejoin:miter;stroke-opacity:1"/>
<path class="bond-65 atom-62 atom-63" d="M 661.0,72.7 L 661.7,71.5" style="fill:none;fill-rule:evenodd;stroke:#FF0000;stroke-width:2.0px;stroke-linecap:butt;stroke-linejoin:miter;stroke-opacity:1"/>
<path class="bond-65 atom-62 atom-63" d="M 658.6,72.8 L 659.3,71.6" style="fill:none;fill-rule:evenodd;stroke:#FF7F00;stroke-width:2.0px;stroke-linecap:butt;stroke-linejoin:miter;stroke-opacity:1"/>
<path class="bond-65 atom-62 atom-63" d="M 659.3,71.6 L 659.9,70.5" style="fill:none;fill-rule:evenodd;stroke:#FF0000;stroke-width:2.0px;stroke-linecap:butt;stroke-linejoin:miter;stroke-opacity:1"/>
<path class="bond-66 atom-62 atom-64" d="M 654.0,82.5 L 653.3,83.7" style="fill:none;fill-rule:evenodd;stroke:#FF7F00;stroke-width:2.0px;stroke-linecap:butt;stroke-linejoin:miter;stroke-opacity:1"/>
<path class="bond-66 atom-62 atom-64" d="M 653.3,83.7 L 652.6,84.9" style="fill:none;fill-rule:evenodd;stroke:#FF0000;stroke-width:2.0px;stroke-linecap:butt;stroke-linejoin:miter;stroke-opacity:1"/>
<path class="bond-67 atom-62 atom-65" d="M 659.8,79.7 L 662.0,81.0" style="fill:none;fill-rule:evenodd;stroke:#FF7F00;stroke-width:2.0px;stroke-linecap:butt;stroke-linejoin:miter;stroke-opacity:1"/>
<path class="bond-67 atom-62 atom-65" d="M 662.0,81.0 L 664.1,82.2" style="fill:none;fill-rule:evenodd;stroke:#FF0000;stroke-width:2.0px;stroke-linecap:butt;stroke-linejoin:miter;stroke-opacity:1"/>
<path class="bond-68 atom-65 atom-66" d="M 668.3,89.6 L 668.3,93.9" style="fill:none;fill-rule:evenodd;stroke:#FF0000;stroke-width:2.0px;stroke-linecap:butt;stroke-linejoin:miter;stroke-opacity:1"/>
<path class="bond-68 atom-65 atom-66" d="M 668.3,93.9 L 668.2,98.3" style="fill:none;fill-rule:evenodd;stroke:#000000;stroke-width:2.0px;stroke-linecap:butt;stroke-linejoin:miter;stroke-opacity:1"/>
<path class="bond-69 atom-66 atom-67" d="M 668.2,98.3 L 679.9,105.2" style="fill:none;fill-rule:evenodd;stroke:#000000;stroke-width:2.0px;stroke-linecap:butt;stroke-linejoin:miter;stroke-opacity:1"/>
<path class="bond-70 atom-67 atom-68" d="M 679.9,105.2 L 683.9,103.4" style="fill:none;fill-rule:evenodd;stroke:#000000;stroke-width:2.0px;stroke-linecap:butt;stroke-linejoin:miter;stroke-opacity:1"/>
<path class="bond-70 atom-67 atom-68" d="M 683.9,103.4 L 688.0,101.7" style="fill:none;fill-rule:evenodd;stroke:#FF0000;stroke-width:2.0px;stroke-linecap:butt;stroke-linejoin:miter;stroke-opacity:1"/>
<path class="bond-71 atom-68 atom-69" d="M 696.5,104.6 L 698.9,107.3" style="fill:none;fill-rule:evenodd;stroke:#FF0000;stroke-width:2.0px;stroke-linecap:butt;stroke-linejoin:miter;stroke-opacity:1"/>
<path class="bond-71 atom-68 atom-69" d="M 698.9,107.3 L 701.2,110.0" style="fill:none;fill-rule:evenodd;stroke:#000000;stroke-width:2.0px;stroke-linecap:butt;stroke-linejoin:miter;stroke-opacity:1"/>
<path class="bond-72 atom-69 atom-70" d="M 701.2,110.0 L 706.2,109.5" style="fill:none;fill-rule:evenodd;stroke:#000000;stroke-width:2.0px;stroke-linecap:butt;stroke-linejoin:miter;stroke-opacity:1"/>
<path class="bond-72 atom-69 atom-70" d="M 706.2,109.5 L 711.1,109.0" style="fill:none;fill-rule:evenodd;stroke:#0000FF;stroke-width:2.0px;stroke-linecap:butt;stroke-linejoin:miter;stroke-opacity:1"/>
<path class="bond-73 atom-70 atom-71" d="M 718.3,112.8 L 721.0,115.8" style="fill:none;fill-rule:evenodd;stroke:#0000FF;stroke-width:2.0px;stroke-linecap:butt;stroke-linejoin:miter;stroke-opacity:1"/>
<path class="bond-73 atom-70 atom-71" d="M 721.0,115.8 L 723.6,118.8" style="fill:none;fill-rule:evenodd;stroke:#000000;stroke-width:2.0px;stroke-linecap:butt;stroke-linejoin:miter;stroke-opacity:1"/>
<path class="bond-74 atom-71 atom-72" d="M 723.6,118.8 L 728.0,116.9" style="fill:none;fill-rule:evenodd;stroke:#000000;stroke-width:2.0px;stroke-linecap:butt;stroke-linejoin:miter;stroke-opacity:1"/>
<path class="bond-74 atom-71 atom-72" d="M 728.0,116.9 L 732.5,115.0" style="fill:none;fill-rule:evenodd;stroke:#0000FF;stroke-width:2.0px;stroke-linecap:butt;stroke-linejoin:miter;stroke-opacity:1"/>
<path class="bond-74 atom-71 atom-72" d="M 724.2,116.4 L 727.9,114.8" style="fill:none;fill-rule:evenodd;stroke:#000000;stroke-width:2.0px;stroke-linecap:butt;stroke-linejoin:miter;stroke-opacity:1"/>
<path class="bond-74 atom-71 atom-72" d="M 727.9,114.8 L 731.6,113.2" style="fill:none;fill-rule:evenodd;stroke:#0000FF;stroke-width:2.0px;stroke-linecap:butt;stroke-linejoin:miter;stroke-opacity:1"/>
<path class="bond-75 atom-72 atom-73" d="M 735.6,108.9 L 735.2,104.4" style="fill:none;fill-rule:evenodd;stroke:#0000FF;stroke-width:2.0px;stroke-linecap:butt;stroke-linejoin:miter;stroke-opacity:1"/>
<path class="bond-75 atom-72 atom-73" d="M 735.2,104.4 L 734.8,100.0" style="fill:none;fill-rule:evenodd;stroke:#000000;stroke-width:2.0px;stroke-linecap:butt;stroke-linejoin:miter;stroke-opacity:1"/>
<path class="bond-76 atom-73 atom-74" d="M 734.8,100.0 L 743.9,90.0" style="fill:none;fill-rule:evenodd;stroke:#000000;stroke-width:2.0px;stroke-linecap:butt;stroke-linejoin:miter;stroke-opacity:1"/>
<path class="bond-76 atom-73 atom-74" d="M 734.1,97.8 L 741.7,89.5" style="fill:none;fill-rule:evenodd;stroke:#000000;stroke-width:2.0px;stroke-linecap:butt;stroke-linejoin:miter;stroke-opacity:1"/>
<path class="bond-77 atom-74 atom-75" d="M 743.9,90.0 L 748.7,91.1" style="fill:none;fill-rule:evenodd;stroke:#000000;stroke-width:2.0px;stroke-linecap:butt;stroke-linejoin:miter;stroke-opacity:1"/>
<path class="bond-77 atom-74 atom-75" d="M 748.7,91.1 L 753.5,92.2" style="fill:none;fill-rule:evenodd;stroke:#0000FF;stroke-width:2.0px;stroke-linecap:butt;stroke-linejoin:miter;stroke-opacity:1"/>
<path class="bond-78 atom-74 atom-76" d="M 743.9,90.0 L 742.6,85.9" style="fill:none;fill-rule:evenodd;stroke:#000000;stroke-width:2.0px;stroke-linecap:butt;stroke-linejoin:miter;stroke-opacity:1"/>
<path class="bond-78 atom-74 atom-76" d="M 742.6,85.9 L 741.3,81.8" style="fill:none;fill-rule:evenodd;stroke:#0000FF;stroke-width:2.0px;stroke-linecap:butt;stroke-linejoin:miter;stroke-opacity:1"/>
<path class="bond-79 atom-76 atom-77" d="M 736.3,76.3 L 731.5,75.3" style="fill:none;fill-rule:evenodd;stroke:#0000FF;stroke-width:2.0px;stroke-linecap:butt;stroke-linejoin:miter;stroke-opacity:1"/>
<path class="bond-79 atom-76 atom-77" d="M 731.5,75.3 L 726.7,74.2" style="fill:none;fill-rule:evenodd;stroke:#000000;stroke-width:2.0px;stroke-linecap:butt;stroke-linejoin:miter;stroke-opacity:1"/>
<path class="bond-79 atom-76 atom-77" d="M 735.9,78.3 L 731.6,77.4" style="fill:none;fill-rule:evenodd;stroke:#0000FF;stroke-width:2.0px;stroke-linecap:butt;stroke-linejoin:miter;stroke-opacity:1"/>
<path class="bond-79 atom-76 atom-77" d="M 731.6,77.4 L 727.4,76.4" style="fill:none;fill-rule:evenodd;stroke:#000000;stroke-width:2.0px;stroke-linecap:butt;stroke-linejoin:miter;stroke-opacity:1"/>
<path class="bond-80 atom-77 atom-78" d="M 726.7,74.2 L 723.9,77.2" style="fill:none;fill-rule:evenodd;stroke:#000000;stroke-width:2.0px;stroke-linecap:butt;stroke-linejoin:miter;stroke-opacity:1"/>
<path class="bond-80 atom-77 atom-78" d="M 723.9,77.2 L 721.1,80.2" style="fill:none;fill-rule:evenodd;stroke:#0000FF;stroke-width:2.0px;stroke-linecap:butt;stroke-linejoin:miter;stroke-opacity:1"/>
<path class="bond-81 atom-78 atom-79" d="M 719.0,88.8 L 720.3,92.9" style="fill:none;fill-rule:evenodd;stroke:#0000FF;stroke-width:2.0px;stroke-linecap:butt;stroke-linejoin:miter;stroke-opacity:1"/>
<path class="bond-81 atom-78 atom-79" d="M 720.3,92.9 L 721.6,97.1" style="fill:none;fill-rule:evenodd;stroke:#000000;stroke-width:2.0px;stroke-linecap:butt;stroke-linejoin:miter;stroke-opacity:1"/>
<path class="bond-81 atom-78 atom-79" d="M 720.9,88.1 L 722.0,91.7" style="fill:none;fill-rule:evenodd;stroke:#0000FF;stroke-width:2.0px;stroke-linecap:butt;stroke-linejoin:miter;stroke-opacity:1"/>
<path class="bond-81 atom-78 atom-79" d="M 722.0,91.7 L 723.2,95.3" style="fill:none;fill-rule:evenodd;stroke:#000000;stroke-width:2.0px;stroke-linecap:butt;stroke-linejoin:miter;stroke-opacity:1"/>
<path class="bond-82 atom-69 atom-80" d="M 701.2,110.0 L 694.3,121.6" style="fill:none;fill-rule:evenodd;stroke:#000000;stroke-width:2.0px;stroke-linecap:butt;stroke-linejoin:miter;stroke-opacity:1"/>
<path class="bond-83 atom-80 atom-81" d="M 694.3,121.6 L 696.0,125.5" style="fill:none;fill-rule:evenodd;stroke:#000000;stroke-width:2.0px;stroke-linecap:butt;stroke-linejoin:miter;stroke-opacity:1"/>
<path class="bond-83 atom-80 atom-81" d="M 696.0,125.5 L 697.7,129.4" style="fill:none;fill-rule:evenodd;stroke:#FF0000;stroke-width:2.0px;stroke-linecap:butt;stroke-linejoin:miter;stroke-opacity:1"/>
<path class="bond-84 atom-80 atom-82" d="M 694.3,121.6 L 681.1,118.7" style="fill:none;fill-rule:evenodd;stroke:#000000;stroke-width:2.0px;stroke-linecap:butt;stroke-linejoin:miter;stroke-opacity:1"/>
<path class="bond-85 atom-82 atom-83" d="M 681.1,118.7 L 678.2,121.2" style="fill:none;fill-rule:evenodd;stroke:#000000;stroke-width:2.0px;stroke-linecap:butt;stroke-linejoin:miter;stroke-opacity:1"/>
<path class="bond-85 atom-82 atom-83" d="M 678.2,121.2 L 675.3,123.8" style="fill:none;fill-rule:evenodd;stroke:#FF0000;stroke-width:2.0px;stroke-linecap:butt;stroke-linejoin:miter;stroke-opacity:1"/>
<path class="bond-86 atom-55 atom-84" d="M 609.6,104.4 L 608.0,117.9" style="fill:none;fill-rule:evenodd;stroke:#000000;stroke-width:2.0px;stroke-linecap:butt;stroke-linejoin:miter;stroke-opacity:1"/>
<path class="bond-87 atom-84 atom-85" d="M 608.0,117.9 L 610.9,120.5" style="fill:none;fill-rule:evenodd;stroke:#000000;stroke-width:2.0px;stroke-linecap:butt;stroke-linejoin:miter;stroke-opacity:1"/>
<path class="bond-87 atom-84 atom-85" d="M 610.9,120.5 L 613.7,123.1" style="fill:none;fill-rule:evenodd;stroke:#FF0000;stroke-width:2.0px;stroke-linecap:butt;stroke-linejoin:miter;stroke-opacity:1"/>
<path class="bond-88 atom-84 atom-86" d="M 608.0,117.9 L 594.8,120.5" style="fill:none;fill-rule:evenodd;stroke:#000000;stroke-width:2.0px;stroke-linecap:butt;stroke-linejoin:miter;stroke-opacity:1"/>
<path class="bond-89 atom-86 atom-87" d="M 594.8,120.5 L 593.0,124.4" style="fill:none;fill-rule:evenodd;stroke:#000000;stroke-width:2.0px;stroke-linecap:butt;stroke-linejoin:miter;stroke-opacity:1"/>
<path class="bond-89 atom-86 atom-87" d="M 593.0,124.4 L 591.3,128.2" style="fill:none;fill-rule:evenodd;stroke:#FF0000;stroke-width:2.0px;stroke-linecap:butt;stroke-linejoin:miter;stroke-opacity:1"/>
<path class="bond-90 atom-52 atom-88" d="M 571.3,111.8 L 569.0,114.9" style="fill:none;fill-rule:evenodd;stroke:#0000FF;stroke-width:2.0px;stroke-linecap:butt;stroke-linejoin:miter;stroke-opacity:1"/>
<path class="bond-90 atom-52 atom-88" d="M 569.0,114.9 L 566.6,118.1" style="fill:none;fill-rule:evenodd;stroke:#000000;stroke-width:2.0px;stroke-linecap:butt;stroke-linejoin:miter;stroke-opacity:1"/>
<path class="bond-91 atom-88 atom-89" d="M 566.6,118.1 L 553.2,116.5" style="fill:none;fill-rule:evenodd;stroke:#000000;stroke-width:2.0px;stroke-linecap:butt;stroke-linejoin:miter;stroke-opacity:1"/>
<path class="bond-91 atom-88 atom-89" d="M 565.7,115.9 L 554.6,114.6" style="fill:none;fill-rule:evenodd;stroke:#000000;stroke-width:2.0px;stroke-linecap:butt;stroke-linejoin:miter;stroke-opacity:1"/>
<path class="bond-92 atom-89 atom-90" d="M 553.2,116.5 L 547.8,104.1" style="fill:none;fill-rule:evenodd;stroke:#000000;stroke-width:2.0px;stroke-linecap:butt;stroke-linejoin:miter;stroke-opacity:1"/>
<path class="bond-93 atom-90 atom-50" d="M 547.8,104.1 L 555.9,93.2" style="fill:none;fill-rule:evenodd;stroke:#000000;stroke-width:2.0px;stroke-linecap:butt;stroke-linejoin:miter;stroke-opacity:1"/>
<path class="bond-94 atom-86 atom-53" d="M 594.8,120.5 L 588.1,108.8" style="fill:none;fill-rule:evenodd;stroke:#000000;stroke-width:2.0px;stroke-linecap:butt;stroke-linejoin:miter;stroke-opacity:1"/>
<path class="bond-95 atom-82 atom-67" d="M 681.1,118.7 L 679.9,105.2" style="fill:none;fill-rule:evenodd;stroke:#000000;stroke-width:2.0px;stroke-linecap:butt;stroke-linejoin:miter;stroke-opacity:1"/>
<path class="bond-96 atom-79 atom-70" d="M 721.6,97.1 L 719.5,100.6" style="fill:none;fill-rule:evenodd;stroke:#000000;stroke-width:2.0px;stroke-linecap:butt;stroke-linejoin:miter;stroke-opacity:1"/>
<path class="bond-96 atom-79 atom-70" d="M 719.5,100.6 L 717.4,104.1" style="fill:none;fill-rule:evenodd;stroke:#0000FF;stroke-width:2.0px;stroke-linecap:butt;stroke-linejoin:miter;stroke-opacity:1"/>
<path class="bond-97 atom-79 atom-73" d="M 721.6,97.1 L 734.8,100.0" style="fill:none;fill-rule:evenodd;stroke:#000000;stroke-width:2.0px;stroke-linecap:butt;stroke-linejoin:miter;stroke-opacity:1"/>
<path class="atom-0" d="M 556.7 65.7 L 559.5 70.2 Q 559.8 70.7, 560.2 71.5 Q 560.7 72.3, 560.7 72.3 L 560.7 65.7 L 561.8 65.7 L 561.8 74.2 L 560.7 74.2 L 557.7 69.3 Q 557.3 68.7, 556.9 68.1 Q 556.6 67.4, 556.5 67.2 L 556.5 74.2 L 555.4 74.2 L 555.4 65.7 L 556.7 65.7 " fill="#0000FF"/>
<path class="atom-0" d="M 563.4 65.7 L 564.6 65.7 L 564.6 69.3 L 568.9 69.3 L 568.9 65.7 L 570.1 65.7 L 570.1 74.2 L 568.9 74.2 L 568.9 70.3 L 564.6 70.3 L 564.6 74.2 L 563.4 74.2 L 563.4 65.7 " fill="#0000FF"/>
<path class="atom-0" d="M 571.8 73.9 Q 572.0 73.4, 572.4 73.1 Q 572.9 72.8, 573.6 72.8 Q 574.5 72.8, 574.9 73.2 Q 575.4 73.7, 575.4 74.5 Q 575.4 75.4, 574.8 76.1 Q 574.2 76.9, 572.9 77.8 L 575.5 77.8 L 575.5 78.5 L 571.7 78.5 L 571.7 77.9 Q 572.8 77.2, 573.4 76.6 Q 574.0 76.1, 574.3 75.6 Q 574.6 75.1, 574.6 74.6 Q 574.6 74.0, 574.4 73.7 Q 574.1 73.4, 573.6 73.4 Q 573.2 73.4, 572.9 73.6 Q 572.6 73.8, 572.4 74.2 L 571.8 73.9 " fill="#0000FF"/>
<path class="atom-2" d="M 533.2 79.3 Q 533.2 77.2, 534.2 76.1 Q 535.2 75.0, 537.1 75.0 Q 539.0 75.0, 540.0 76.1 Q 541.0 77.2, 541.0 79.3 Q 541.0 81.3, 540.0 82.5 Q 539.0 83.7, 537.1 83.7 Q 535.2 83.7, 534.2 82.5 Q 533.2 81.4, 533.2 79.3 M 537.1 82.7 Q 538.4 82.7, 539.1 81.9 Q 539.8 81.0, 539.8 79.3 Q 539.8 77.6, 539.1 76.8 Q 538.4 75.9, 537.1 75.9 Q 535.8 75.9, 535.1 76.8 Q 534.4 77.6, 534.4 79.3 Q 534.4 81.0, 535.1 81.9 Q 535.8 82.7, 537.1 82.7 " fill="#FF0000"/>
<path class="atom-5" d="M 572.8 103.0 L 575.6 107.5 Q 575.9 107.9, 576.3 108.7 Q 576.8 109.5, 576.8 109.6 L 576.8 103.0 L 577.9 103.0 L 577.9 111.5 L 576.8 111.5 L 573.8 106.5 Q 573.4 106.0, 573.1 105.3 Q 572.7 104.6, 572.6 104.4 L 572.6 111.5 L 571.5 111.5 L 571.5 103.0 L 572.8 103.0 " fill="#0000FF"/>
<path class="atom-7" d="M 593.4 98.8 Q 593.4 96.8, 594.4 95.6 Q 595.4 94.5, 597.3 94.5 Q 599.2 94.5, 600.2 95.6 Q 601.2 96.8, 601.2 98.8 Q 601.2 100.9, 600.2 102.1 Q 599.2 103.2, 597.3 103.2 Q 595.4 103.2, 594.4 102.1 Q 593.4 100.9, 593.4 98.8 M 597.3 102.3 Q 598.6 102.3, 599.3 101.4 Q 600.0 100.5, 600.0 98.8 Q 600.0 97.2, 599.3 96.3 Q 598.6 95.5, 597.3 95.5 Q 596.0 95.5, 595.3 96.3 Q 594.6 97.1, 594.6 98.8 Q 594.6 100.5, 595.3 101.4 Q 596.0 102.3, 597.3 102.3 " fill="#FF0000"/>
<path class="atom-10" d="M 617.6 84.3 Q 617.6 82.3, 618.6 81.1 Q 619.6 80.0, 621.5 80.0 Q 623.4 80.0, 624.4 81.1 Q 625.4 82.3, 625.4 84.3 Q 625.4 86.4, 624.4 87.5 Q 623.4 88.7, 621.5 88.7 Q 619.7 88.7, 618.6 87.5 Q 617.6 86.4, 617.6 84.3 M 621.5 87.7 Q 622.8 87.7, 623.5 86.9 Q 624.2 86.0, 624.2 84.3 Q 624.2 82.6, 623.5 81.8 Q 622.8 80.9, 621.5 80.9 Q 620.2 80.9, 619.5 81.8 Q 618.8 82.6, 618.8 84.3 Q 618.8 86.0, 619.5 86.9 Q 620.2 87.7, 621.5 87.7 " fill="#FF0000"/>
<path class="atom-11" d="M 633.1 73.4 Q 634.6 73.4, 635.3 74.0 Q 636.0 74.7, 636.0 75.9 Q 636.0 77.1, 635.3 77.7 Q 634.5 78.4, 633.1 78.4 L 631.8 78.4 L 631.8 81.9 L 630.6 81.9 L 630.6 73.4 L 633.1 73.4 M 633.1 77.4 Q 633.9 77.4, 634.4 77.0 Q 634.8 76.6, 634.8 75.9 Q 634.8 75.1, 634.4 74.7 Q 633.9 74.3, 633.1 74.3 L 631.8 74.3 L 631.8 77.4 L 633.1 77.4 " fill="#FF7F00"/>
<path class="atom-12" d="M 622.8 65.9 Q 622.8 63.8, 623.8 62.7 Q 624.8 61.6, 626.7 61.6 Q 628.6 61.6, 629.6 62.7 Q 630.6 63.8, 630.6 65.9 Q 630.6 67.9, 629.6 69.1 Q 628.5 70.3, 626.7 70.3 Q 624.8 70.3, 623.8 69.1 Q 622.8 68.0, 622.8 65.9 M 626.7 69.3 Q 628.0 69.3, 628.7 68.5 Q 629.4 67.6, 629.4 65.9 Q 629.4 64.2, 628.7 63.4 Q 628.0 62.5, 626.7 62.5 Q 625.4 62.5, 624.7 63.4 Q 624.0 64.2, 624.0 65.9 Q 624.0 67.6, 624.7 68.5 Q 625.4 69.3, 626.7 69.3 " fill="#FF0000"/>
<path class="atom-13" d="M 636.0 89.4 Q 636.0 87.4, 637.1 86.3 Q 638.1 85.1, 639.9 85.1 Q 641.8 85.1, 642.8 86.3 Q 643.8 87.4, 643.8 89.4 Q 643.8 91.5, 642.8 92.7 Q 641.8 93.8, 639.9 93.8 Q 638.1 93.8, 637.1 92.7 Q 636.0 91.5, 636.0 89.4 M 639.9 92.9 Q 641.2 92.9, 641.9 92.0 Q 642.6 91.1, 642.6 89.4 Q 642.6 87.8, 641.9 86.9 Q 641.2 86.1, 639.9 86.1 Q 638.7 86.1, 637.9 86.9 Q 637.2 87.8, 637.2 89.4 Q 637.2 91.2, 637.9 92.0 Q 638.7 92.9, 639.9 92.9 " fill="#FF0000"/>
<path class="atom-13" d="M 645.2 85.2 L 646.3 85.2 L 646.3 88.8 L 650.7 88.8 L 650.7 85.2 L 651.8 85.2 L 651.8 93.7 L 650.7 93.7 L 650.7 89.8 L 646.3 89.8 L 646.3 93.7 L 645.2 93.7 L 645.2 85.2 " fill="#FF0000"/>
<path class="atom-14" d="M 641.2 71.0 Q 641.2 69.0, 642.2 67.8 Q 643.2 66.7, 645.1 66.7 Q 647.0 66.7, 648.0 67.8 Q 649.0 69.0, 649.0 71.0 Q 649.0 73.1, 648.0 74.3 Q 647.0 75.4, 645.1 75.4 Q 643.2 75.4, 642.2 74.3 Q 641.2 73.1, 641.2 71.0 M 645.1 74.5 Q 646.4 74.5, 647.1 73.6 Q 647.8 72.7, 647.8 71.0 Q 647.8 69.4, 647.1 68.5 Q 646.4 67.7, 645.1 67.7 Q 643.8 67.7, 643.1 68.5 Q 642.4 69.3, 642.4 71.0 Q 642.4 72.7, 643.1 73.6 Q 643.8 74.5, 645.1 74.5 " fill="#FF0000"/>
<path class="atom-15" d="M 656.5 73.6 Q 658.0 73.6, 658.7 74.3 Q 659.4 74.9, 659.4 76.1 Q 659.4 77.3, 658.7 78.0 Q 657.9 78.6, 656.5 78.6 L 655.2 78.6 L 655.2 82.1 L 654.0 82.1 L 654.0 73.6 L 656.5 73.6 M 656.5 77.7 Q 657.4 77.7, 657.8 77.3 Q 658.2 76.9, 658.2 76.1 Q 658.2 75.4, 657.8 75.0 Q 657.4 74.6, 656.5 74.6 L 655.2 74.6 L 655.2 77.7 L 656.5 77.7 " fill="#FF7F00"/>
<path class="atom-16" d="M 659.7 66.3 Q 659.7 64.2, 660.7 63.1 Q 661.7 61.9, 663.6 61.9 Q 665.5 61.9, 666.5 63.1 Q 667.5 64.2, 667.5 66.3 Q 667.5 68.3, 666.5 69.5 Q 665.5 70.7, 663.6 70.7 Q 661.8 70.7, 660.7 69.5 Q 659.7 68.3, 659.7 66.3 M 663.6 69.7 Q 664.9 69.7, 665.6 68.8 Q 666.3 68.0, 666.3 66.3 Q 666.3 64.6, 665.6 63.8 Q 664.9 62.9, 663.6 62.9 Q 662.3 62.9, 661.6 63.7 Q 660.9 64.6, 660.9 66.3 Q 660.9 68.0, 661.6 68.8 Q 662.3 69.7, 663.6 69.7 " fill="#FF0000"/>
<path class="atom-17" d="M 637.6 85.3 L 638.7 85.3 L 638.7 88.9 L 643.1 88.9 L 643.1 85.3 L 644.2 85.3 L 644.2 93.8 L 643.1 93.8 L 643.1 89.9 L 638.7 89.9 L 638.7 93.8 L 637.6 93.8 L 637.6 85.3 " fill="#FF0000"/>
<path class="atom-17" d="M 645.9 89.6 Q 645.9 87.5, 647.0 86.4 Q 648.0 85.2, 649.8 85.2 Q 651.7 85.2, 652.7 86.4 Q 653.7 87.5, 653.7 89.6 Q 653.7 91.6, 652.7 92.8 Q 651.7 94.0, 649.8 94.0 Q 648.0 94.0, 647.0 92.8 Q 645.9 91.6, 645.9 89.6 M 649.8 93.0 Q 651.1 93.0, 651.8 92.1 Q 652.5 91.3, 652.5 89.6 Q 652.5 87.9, 651.8 87.0 Q 651.1 86.2, 649.8 86.2 Q 648.6 86.2, 647.8 87.0 Q 647.1 87.9, 647.1 89.6 Q 647.1 91.3, 647.8 92.1 Q 648.6 93.0, 649.8 93.0 " fill="#FF0000"/>
<path class="atom-18" d="M 664.5 84.8 Q 664.5 82.8, 665.5 81.6 Q 666.5 80.5, 668.4 80.5 Q 670.3 80.5, 671.3 81.6 Q 672.3 82.8, 672.3 84.8 Q 672.3 86.9, 671.3 88.0 Q 670.2 89.2, 668.4 89.2 Q 666.5 89.2, 665.5 88.0 Q 664.5 86.9, 664.5 84.8 M 668.4 88.2 Q 669.7 88.2, 670.4 87.4 Q 671.1 86.5, 671.1 84.8 Q 671.1 83.1, 670.4 82.3 Q 669.7 81.4, 668.4 81.4 Q 667.1 81.4, 666.4 82.3 Q 665.7 83.1, 665.7 84.8 Q 665.7 86.5, 666.4 87.4 Q 667.1 88.2, 668.4 88.2 " fill="#FF0000"/>
<path class="atom-21" d="M 688.4 99.8 Q 688.4 97.8, 689.4 96.7 Q 690.4 95.5, 692.3 95.5 Q 694.2 95.5, 695.2 96.7 Q 696.2 97.8, 696.2 99.8 Q 696.2 101.9, 695.2 103.1 Q 694.1 104.2, 692.3 104.2 Q 690.4 104.2, 689.4 103.1 Q 688.4 101.9, 688.4 99.8 M 692.3 103.3 Q 693.6 103.3, 694.3 102.4 Q 695.0 101.5, 695.0 99.8 Q 695.0 98.2, 694.3 97.3 Q 693.6 96.5, 692.3 96.5 Q 691.0 96.5, 690.3 97.3 Q 689.6 98.2, 689.6 99.8 Q 689.6 101.6, 690.3 102.4 Q 691.0 103.3, 692.3 103.3 " fill="#FF0000"/>
<path class="atom-23" d="M 712.8 104.4 L 715.6 108.9 Q 715.9 109.4, 716.3 110.2 Q 716.8 111.0, 716.8 111.0 L 716.8 104.4 L 717.9 104.4 L 717.9 112.9 L 716.8 112.9 L 713.8 108.0 Q 713.4 107.4, 713.0 106.8 Q 712.7 106.1, 712.6 105.9 L 712.6 112.9 L 711.5 112.9 L 711.5 104.4 L 712.8 104.4 " fill="#0000FF"/>
<path class="atom-25" d="M 734.2 109.2 L 737.0 113.7 Q 737.2 114.2, 737.7 115.0 Q 738.1 115.8, 738.2 115.8 L 738.2 109.2 L 739.3 109.2 L 739.3 117.7 L 738.1 117.7 L 735.1 112.8 Q 734.8 112.2, 734.4 111.6 Q 734.0 110.9, 733.9 110.7 L 733.9 117.7 L 732.8 117.7 L 732.8 109.2 L 734.2 109.2 " fill="#0000FF"/>
<path class="atom-28" d="M 755.3 88.8 L 758.0 93.3 Q 758.3 93.7, 758.8 94.5 Q 759.2 95.3, 759.2 95.4 L 759.2 88.8 L 760.4 88.8 L 760.4 97.3 L 759.2 97.3 L 756.2 92.3 Q 755.9 91.8, 755.5 91.1 Q 755.1 90.4, 755.0 90.2 L 755.0 97.3 L 753.9 97.3 L 753.9 88.8 L 755.3 88.8 " fill="#0000FF"/>
<path class="atom-28" d="M 762.0 88.8 L 763.1 88.8 L 763.1 92.4 L 767.5 92.4 L 767.5 88.8 L 768.6 88.8 L 768.6 97.3 L 767.5 97.3 L 767.5 93.3 L 763.1 93.3 L 763.1 97.3 L 762.0 97.3 L 762.0 88.8 " fill="#0000FF"/>
<path class="atom-28" d="M 770.3 97.0 Q 770.5 96.4, 771.0 96.1 Q 771.5 95.8, 772.2 95.8 Q 773.0 95.8, 773.5 96.3 Q 774.0 96.7, 774.0 97.6 Q 774.0 98.4, 773.3 99.2 Q 772.7 99.9, 771.5 100.9 L 774.1 100.9 L 774.1 101.5 L 770.3 101.5 L 770.3 101.0 Q 771.3 100.2, 771.9 99.7 Q 772.6 99.1, 772.9 98.6 Q 773.2 98.1, 773.2 97.6 Q 773.2 97.1, 772.9 96.8 Q 772.6 96.5, 772.2 96.5 Q 771.7 96.5, 771.4 96.6 Q 771.1 96.8, 770.9 97.2 L 770.3 97.0 " fill="#0000FF"/>
<path class="atom-29" d="M 738.0 72.9 L 740.8 77.4 Q 741.1 77.8, 741.5 78.6 Q 742.0 79.4, 742.0 79.5 L 742.0 72.9 L 743.1 72.9 L 743.1 81.4 L 742.0 81.4 L 739.0 76.5 Q 738.6 75.9, 738.3 75.2 Q 737.9 74.6, 737.8 74.4 L 737.8 81.4 L 736.7 81.4 L 736.7 72.9 L 738.0 72.9 " fill="#0000FF"/>
<path class="atom-31" d="M 715.7 79.9 L 718.4 84.4 Q 718.7 84.8, 719.2 85.6 Q 719.6 86.4, 719.6 86.5 L 719.6 79.9 L 720.8 79.9 L 720.8 88.4 L 719.6 88.4 L 716.6 83.5 Q 716.3 82.9, 715.9 82.2 Q 715.5 81.6, 715.4 81.4 L 715.4 88.4 L 714.3 88.4 L 714.3 79.9 L 715.7 79.9 " fill="#0000FF"/>
<path class="atom-34" d="M 695.8 134.0 Q 695.8 132.0, 696.8 130.9 Q 697.8 129.7, 699.7 129.7 Q 701.6 129.7, 702.6 130.9 Q 703.6 132.0, 703.6 134.0 Q 703.6 136.1, 702.6 137.3 Q 701.6 138.4, 699.7 138.4 Q 697.8 138.4, 696.8 137.3 Q 695.8 136.1, 695.8 134.0 M 699.7 137.5 Q 701.0 137.5, 701.7 136.6 Q 702.4 135.7, 702.4 134.0 Q 702.4 132.4, 701.7 131.5 Q 701.0 130.7, 699.7 130.7 Q 698.4 130.7, 697.7 131.5 Q 697.0 132.4, 697.0 134.0 Q 697.0 135.8, 697.7 136.6 Q 698.4 137.5, 699.7 137.5 " fill="#FF0000"/>
<path class="atom-34" d="M 704.9 129.8 L 706.1 129.8 L 706.1 133.4 L 710.4 133.4 L 710.4 129.8 L 711.6 129.8 L 711.6 138.3 L 710.4 138.3 L 710.4 134.4 L 706.1 134.4 L 706.1 138.3 L 704.9 138.3 L 704.9 129.8 " fill="#FF0000"/>
<path class="atom-36" d="M 658.7 123.4 L 659.9 123.4 L 659.9 127.0 L 664.2 127.0 L 664.2 123.4 L 665.4 123.4 L 665.4 131.9 L 664.2 131.9 L 664.2 128.0 L 659.9 128.0 L 659.9 131.9 L 658.7 131.9 L 658.7 123.4 " fill="#FF0000"/>
<path class="atom-36" d="M 667.1 127.6 Q 667.1 125.6, 668.1 124.4 Q 669.1 123.3, 671.0 123.3 Q 672.9 123.3, 673.9 124.4 Q 674.9 125.6, 674.9 127.6 Q 674.9 129.7, 673.9 130.9 Q 672.9 132.0, 671.0 132.0 Q 669.1 132.0, 668.1 130.9 Q 667.1 129.7, 667.1 127.6 M 671.0 131.1 Q 672.3 131.1, 673.0 130.2 Q 673.7 129.3, 673.7 127.6 Q 673.7 126.0, 673.0 125.1 Q 672.3 124.3, 671.0 124.3 Q 669.7 124.3, 669.0 125.1 Q 668.3 125.9, 668.3 127.6 Q 668.3 129.3, 669.0 130.2 Q 669.7 131.1, 671.0 131.1 " fill="#FF0000"/>
<path class="atom-38" d="M 614.1 127.1 Q 614.1 125.0, 615.1 123.9 Q 616.1 122.7, 618.0 122.7 Q 619.9 122.7, 620.9 123.9 Q 621.9 125.0, 621.9 127.1 Q 621.9 129.1, 620.9 130.3 Q 619.9 131.5, 618.0 131.5 Q 616.1 131.5, 615.1 130.3 Q 614.1 129.1, 614.1 127.1 M 618.0 130.5 Q 619.3 130.5, 620.0 129.6 Q 620.7 128.8, 620.7 127.1 Q 620.7 125.4, 620.0 124.5 Q 619.3 123.7, 618.0 123.7 Q 616.7 123.7, 616.0 124.5 Q 615.3 125.4, 615.3 127.1 Q 615.3 128.8, 616.0 129.6 Q 616.7 130.5, 618.0 130.5 " fill="#FF0000"/>
<path class="atom-38" d="M 623.2 122.8 L 624.4 122.8 L 624.4 126.4 L 628.7 126.4 L 628.7 122.8 L 629.9 122.8 L 629.9 131.3 L 628.7 131.3 L 628.7 127.4 L 624.4 127.4 L 624.4 131.3 L 623.2 131.3 L 623.2 122.8 " fill="#FF0000"/>
<path class="atom-40" d="M 576.9 128.6 L 578.0 128.6 L 578.0 132.3 L 582.4 132.3 L 582.4 128.6 L 583.5 128.6 L 583.5 137.1 L 582.4 137.1 L 582.4 133.2 L 578.0 133.2 L 578.0 137.1 L 576.9 137.1 L 576.9 128.6 " fill="#FF0000"/>
<path class="atom-40" d="M 585.2 132.9 Q 585.2 130.8, 586.3 129.7 Q 587.3 128.5, 589.1 128.5 Q 591.0 128.5, 592.0 129.7 Q 593.0 130.8, 593.0 132.9 Q 593.0 134.9, 592.0 136.1 Q 591.0 137.3, 589.1 137.3 Q 587.3 137.3, 586.3 136.1 Q 585.2 134.9, 585.2 132.9 M 589.1 136.3 Q 590.4 136.3, 591.1 135.4 Q 591.8 134.6, 591.8 132.9 Q 591.8 131.2, 591.1 130.4 Q 590.4 129.5, 589.1 129.5 Q 587.9 129.5, 587.1 130.3 Q 586.4 131.2, 586.4 132.9 Q 586.4 134.6, 587.1 135.4 Q 587.9 136.3, 589.1 136.3 " fill="#FF0000"/>
<path d="M 781.0,96.0 L 781.0,104.0" style="fill:none;fill-rule:evenodd;stroke:#000000;stroke-width:2.0px;stroke-linecap:butt;stroke-linejoin:miter;stroke-opacity:1"/>
<path d="M 777.0,100.0 L 785.0,100.0" style="fill:none;fill-rule:evenodd;stroke:#000000;stroke-width:2.0px;stroke-linecap:butt;stroke-linejoin:miter;stroke-opacity:1"/>
<path class="bond-98 atom-91 atom-92" d="M 814.8,100.9 L 812.0,100.9" style="fill:none;fill-rule:evenodd;stroke:#FF0000;stroke-width:2.0px;stroke-linecap:butt;stroke-linejoin:miter;stroke-opacity:1"/>
<path class="bond-98 atom-91 atom-92" d="M 812.0,100.9 L 809.2,100.9" style="fill:none;fill-rule:evenodd;stroke:#000000;stroke-width:2.0px;stroke-linecap:butt;stroke-linejoin:miter;stroke-opacity:1"/>
<path class="bond-98 atom-91 atom-92" d="M 814.8,98.9 L 812.0,98.9" style="fill:none;fill-rule:evenodd;stroke:#FF0000;stroke-width:2.0px;stroke-linecap:butt;stroke-linejoin:miter;stroke-opacity:1"/>
<path class="bond-98 atom-91 atom-92" d="M 812.0,98.9 L 809.2,98.9" style="fill:none;fill-rule:evenodd;stroke:#000000;stroke-width:2.0px;stroke-linecap:butt;stroke-linejoin:miter;stroke-opacity:1"/>
<path class="bond-99 atom-92 atom-93" d="M 801.8,100.9 L 799.0,100.9" style="fill:none;fill-rule:evenodd;stroke:#000000;stroke-width:2.0px;stroke-linecap:butt;stroke-linejoin:miter;stroke-opacity:1"/>
<path class="bond-99 atom-92 atom-93" d="M 799.0,100.9 L 796.2,100.9" style="fill:none;fill-rule:evenodd;stroke:#FF0000;stroke-width:2.0px;stroke-linecap:butt;stroke-linejoin:miter;stroke-opacity:1"/>
<path class="bond-99 atom-92 atom-93" d="M 801.8,98.9 L 799.0,98.9" style="fill:none;fill-rule:evenodd;stroke:#000000;stroke-width:2.0px;stroke-linecap:butt;stroke-linejoin:miter;stroke-opacity:1"/>
<path class="bond-99 atom-92 atom-93" d="M 799.0,98.9 L 796.2,98.9" style="fill:none;fill-rule:evenodd;stroke:#FF0000;stroke-width:2.0px;stroke-linecap:butt;stroke-linejoin:miter;stroke-opacity:1"/>
<path class="atom-0" d="M 815.1 100.0 Q 815.1 97.9, 816.1 96.8 Q 817.1 95.6, 819.0 95.6 Q 820.9 95.6, 821.9 96.8 Q 822.9 97.9, 822.9 100.0 Q 822.9 102.0, 821.9 103.2 Q 820.9 104.4, 819.0 104.4 Q 817.2 104.4, 816.1 103.2 Q 815.1 102.0, 815.1 100.0 M 819.0 103.4 Q 820.3 103.4, 821.0 102.5 Q 821.7 101.7, 821.7 100.0 Q 821.7 98.3, 821.0 97.5 Q 820.3 96.6, 819.0 96.6 Q 817.7 96.6, 817.0 97.4 Q 816.3 98.3, 816.3 100.0 Q 816.3 101.7, 817.0 102.5 Q 817.7 103.4, 819.0 103.4 " fill="#FF0000"/>
<path class="atom-1" d="M 802.2 100.0 Q 802.2 97.9, 803.2 96.8 Q 804.2 95.6, 806.1 95.6 Q 807.8 95.6, 808.8 96.9 L 808.0 97.5 Q 807.3 96.6, 806.1 96.6 Q 804.8 96.6, 804.1 97.5 Q 803.4 98.3, 803.4 100.0 Q 803.4 101.7, 804.1 102.5 Q 804.9 103.4, 806.2 103.4 Q 807.2 103.4, 808.2 102.8 L 808.6 103.7 Q 808.1 104.0, 807.5 104.2 Q 806.8 104.3, 806.1 104.3 Q 804.2 104.3, 803.2 103.2 Q 802.2 102.1, 802.2 100.0 " fill="#000000"/>
<path class="atom-2" d="M 788.1 100.0 Q 788.1 97.9, 789.1 96.8 Q 790.1 95.6, 792.0 95.6 Q 793.9 95.6, 794.9 96.8 Q 795.9 97.9, 795.9 100.0 Q 795.9 102.0, 794.9 103.2 Q 793.8 104.4, 792.0 104.4 Q 790.1 104.4, 789.1 103.2 Q 788.1 102.0, 788.1 100.0 M 792.0 103.4 Q 793.3 103.4, 794.0 102.5 Q 794.7 101.7, 794.7 100.0 Q 794.7 98.3, 794.0 97.5 Q 793.3 96.6, 792.0 96.6 Q 790.7 96.6, 790.0 97.4 Q 789.3 98.3, 789.3 100.0 Q 789.3 101.7, 790.0 102.5 Q 790.7 103.4, 792.0 103.4 " fill="#FF0000"/>
<path d="M 498.0,100.0 L 526.0,100.0" style="fill:none;fill-rule:evenodd;stroke:#000000;stroke-width:2.0px;stroke-linecap:butt;stroke-linejoin:miter;stroke-opacity:1"/>
<path d="M 526.0,100.0 L 521.0,102.9" style="fill:none;fill-rule:evenodd;stroke:#000000;stroke-width:2.0px;stroke-linecap:butt;stroke-linejoin:miter;stroke-opacity:1"/>
<path d="M 526.0,100.0 L 521.0,97.1" style="fill:none;fill-rule:evenodd;stroke:#000000;stroke-width:2.0px;stroke-linecap:butt;stroke-linejoin:miter;stroke-opacity:1"/>
</svg>