<svg xmlns="http://www.w3.org/2000/svg" xmlns:rdkit="http://www.rdkit.org/xml" xmlns:xlink="http://www.w3.org/1999/xlink" version="1.1" baseProfile="full" xml:space="preserve" width="200px" height="200px" viewBox="0 0 200 200">
<!-- END OF HEADER -->
<rect style="opacity:1.0;fill:#FFFFFF;stroke:none" width="200.0" height="200.0" x="0.0" y="0.0"> </rect>
<path class="bond-0 atom-0 atom-1" d="M 43.8,131.3 L 44.5,118.3" style="fill:none;fill-rule:evenodd;stroke:#FF0000;stroke-width:2.0px;stroke-linecap:butt;stroke-linejoin:miter;stroke-opacity:1"/>
<path class="bond-0 atom-0 atom-1" d="M 44.5,118.3 L 45.3,105.3" style="fill:none;fill-rule:evenodd;stroke:#000000;stroke-width:2.0px;stroke-linecap:butt;stroke-linejoin:miter;stroke-opacity:1"/>
<path class="bond-0 atom-0 atom-1" d="M 48.3,131.5 L 49.0,118.5" style="fill:none;fill-rule:evenodd;stroke:#FF0000;stroke-width:2.0px;stroke-linecap:butt;stroke-linejoin:miter;stroke-opacity:1"/>
<path class="bond-0 atom-0 atom-1" d="M 49.0,118.5 L 49.8,105.5" style="fill:none;fill-rule:evenodd;stroke:#000000;stroke-width:2.0px;stroke-linecap:butt;stroke-linejoin:miter;stroke-opacity:1"/>
<path class="bond-1 atom-1 atom-2" d="M 47.4,106.7 L 37.3,100.1" style="fill:none;fill-rule:evenodd;stroke:#000000;stroke-width:2.0px;stroke-linecap:butt;stroke-linejoin:miter;stroke-opacity:1"/>
<path class="bond-1 atom-1 atom-2" d="M 37.3,100.1 L 27.2,93.5" style="fill:none;fill-rule:evenodd;stroke:#FF0000;stroke-width:2.0px;stroke-linecap:butt;stroke-linejoin:miter;stroke-opacity:1"/>
<path class="bond-2 atom-1 atom-3" d="M 47.4,106.7 L 74.2,93.2" style="fill:none;fill-rule:evenodd;stroke:#000000;stroke-width:2.0px;stroke-linecap:butt;stroke-linejoin:miter;stroke-opacity:1"/>
<path class="bond-3 atom-3 atom-4" d="M 76.4,94.6 L 77.1,81.7" style="fill:none;fill-rule:evenodd;stroke:#000000;stroke-width:2.0px;stroke-linecap:butt;stroke-linejoin:miter;stroke-opacity:1"/>
<path class="bond-3 atom-3 atom-4" d="M 77.1,81.7 L 77.9,68.7" style="fill:none;fill-rule:evenodd;stroke:#FF0000;stroke-width:2.0px;stroke-linecap:butt;stroke-linejoin:miter;stroke-opacity:1"/>
<path class="bond-3 atom-3 atom-4" d="M 71.9,94.3 L 72.6,81.4" style="fill:none;fill-rule:evenodd;stroke:#000000;stroke-width:2.0px;stroke-linecap:butt;stroke-linejoin:miter;stroke-opacity:1"/>
<path class="bond-3 atom-3 atom-4" d="M 72.6,81.4 L 73.4,68.5" style="fill:none;fill-rule:evenodd;stroke:#FF0000;stroke-width:2.0px;stroke-linecap:butt;stroke-linejoin:miter;stroke-opacity:1"/>
<path class="bond-4 atom-3 atom-5" d="M 74.2,93.2 L 99.4,109.6" style="fill:none;fill-rule:evenodd;stroke:#000000;stroke-width:2.0px;stroke-linecap:butt;stroke-linejoin:miter;stroke-opacity:1"/>
<path class="bond-5 atom-5 atom-6" d="M 99.4,109.6 L 126.2,96.1" style="fill:none;fill-rule:evenodd;stroke:#000000;stroke-width:2.0px;stroke-linecap:butt;stroke-linejoin:miter;stroke-opacity:1"/>
<path class="bond-6 atom-6 atom-7" d="M 126.2,96.1 L 151.3,112.5" style="fill:none;fill-rule:evenodd;stroke:#000000;stroke-width:2.0px;stroke-linecap:butt;stroke-linejoin:miter;stroke-opacity:1"/>
<path class="bond-7 atom-7 atom-8" d="M 151.3,112.5 L 162.3,107.0" style="fill:none;fill-rule:evenodd;stroke:#000000;stroke-width:2.0px;stroke-linecap:butt;stroke-linejoin:miter;stroke-opacity:1"/>
<path class="bond-7 atom-7 atom-8" d="M 162.3,107.0 L 173.2,101.5" style="fill:none;fill-rule:evenodd;stroke:#FF0000;stroke-width:2.0px;stroke-linecap:butt;stroke-linejoin:miter;stroke-opacity:1"/>
<path d="M 46.9,106.4 L 47.4,106.7 L 48.8,106.0" style="fill:none;stroke:#000000;stroke-width:2.0px;stroke-linecap:butt;stroke-linejoin:miter;stroke-opacity:1;"/>
<path d="M 72.9,93.8 L 74.2,93.2 L 75.5,94.0" style="fill:none;stroke:#000000;stroke-width:2.0px;stroke-linecap:butt;stroke-linejoin:miter;stroke-opacity:1;"/>
<path d="M 98.1,108.8 L 99.4,109.6 L 100.7,108.9" style="fill:none;stroke:#000000;stroke-width:2.0px;stroke-linecap:butt;stroke-linejoin:miter;stroke-opacity:1;"/>
<path d="M 124.8,96.8 L 126.2,96.1 L 127.4,96.9" style="fill:none;stroke:#000000;stroke-width:2.0px;stroke-linecap:butt;stroke-linejoin:miter;stroke-opacity:1;"/>
<path d="M 150.0,111.7 L 151.3,112.5 L 151.9,112.3" style="fill:none;stroke:#000000;stroke-width:2.0px;stroke-linecap:butt;stroke-linejoin:miter;stroke-opacity:1;"/>
<path class="atom-0" d="M 41.8 136.7 Q 41.8 134.7, 42.8 133.5 Q 43.9 132.4, 45.7 132.4 Q 47.6 132.4, 48.6 133.5 Q 49.6 134.7, 49.6 136.7 Q 49.6 138.8, 48.6 140.0 Q 47.6 141.1, 45.7 141.1 Q 43.9 141.1, 42.8 140.0 Q 41.8 138.8, 41.8 136.7 M 45.7 140.2 Q 47.0 140.2, 47.7 139.3 Q 48.4 138.4, 48.4 136.7 Q 48.4 135.0, 47.7 134.2 Q 47.0 133.3, 45.7 133.3 Q 44.4 133.3, 43.7 134.2 Q 43.0 135.0, 43.0 136.7 Q 43.0 138.4, 43.7 139.3 Q 44.4 140.2, 45.7 140.2 " fill="#FF0000"/>
<path class="atom-2" d="M 10.0 86.0 L 11.2 86.0 L 11.2 89.7 L 15.5 89.7 L 15.5 86.0 L 16.7 86.0 L 16.7 94.5 L 15.5 94.5 L 15.5 90.6 L 11.2 90.6 L 11.2 94.5 L 10.0 94.5 L 10.0 86.0 " fill="#FF0000"/>
<path class="atom-2" d="M 18.4 90.3 Q 18.4 88.2, 19.4 87.1 Q 20.4 85.9, 22.3 85.9 Q 24.2 85.9, 25.2 87.1 Q 26.2 88.2, 26.2 90.3 Q 26.2 92.3, 25.2 93.5 Q 24.2 94.7, 22.3 94.7 Q 20.4 94.7, 19.4 93.5 Q 18.4 92.3, 18.4 90.3 M 22.3 93.7 Q 23.6 93.7, 24.3 92.9 Q 25.0 92.0, 25.0 90.3 Q 25.0 88.6, 24.3 87.8 Q 23.6 86.9, 22.3 86.9 Q 21.0 86.9, 20.3 87.7 Q 19.6 88.6, 19.6 90.3 Q 19.6 92.0, 20.3 92.9 Q 21.0 93.7, 22.3 93.7 " fill="#FF0000"/>
<path class="atom-4" d="M 72.0 63.2 Q 72.0 61.2, 73.0 60.0 Q 74.0 58.9, 75.9 58.9 Q 77.8 58.9, 78.8 60.0 Q 79.8 61.2, 79.8 63.2 Q 79.8 65.3, 78.8 66.5 Q 77.8 67.6, 75.9 67.6 Q 74.1 67.6, 73.0 66.5 Q 72.0 65.3, 72.0 63.2 M 75.9 66.7 Q 77.2 66.7, 77.9 65.8 Q 78.6 64.9, 78.6 63.2 Q 78.6 61.5, 77.9 60.7 Q 77.2 59.8, 75.9 59.8 Q 74.6 59.8, 73.9 60.7 Q 73.2 61.5, 73.2 63.2 Q 73.2 64.9, 73.9 65.8 Q 74.6 66.7, 75.9 66.7 " fill="#FF0000"/>
<path class="atom-8" d="M 174.2 99.0 Q 174.2 97.0, 175.2 95.9 Q 176.2 94.7, 178.1 94.7 Q 180.0 94.7, 181.0 95.9 Q 182.0 97.0, 182.0 99.0 Q 182.0 101.1, 181.0 102.3 Q 180.0 103.4, 178.1 103.4 Q 176.2 103.4, 175.2 102.3 Q 174.2 101.1, 174.2 99.0 M 178.1 102.5 Q 179.4 102.5, 180.1 101.6 Q 180.8 100.7, 180.8 99.0 Q 180.8 97.4, 180.1 96.5 Q 179.4 95.7, 178.1 95.7 Q 176.8 95.7, 176.1 96.5 Q 175.4 97.4, 175.4 99.0 Q 175.4 100.8, 176.1 101.6 Q 176.8 102.5, 178.1 102.5 " fill="#FF0000"/>
<path class="atom-8" d="M 183.3 94.8 L 184.5 94.8 L 184.5 98.4 L 188.8 98.4 L 188.8 94.8 L 190.0 94.8 L 190.0 103.3 L 188.8 103.3 L 188.8 99.4 L 184.5 99.4 L 184.5 103.3 L 183.3 103.3 L 183.3 94.8 " fill="#FF0000"/>
</svg>