<svg xmlns="http://www.w3.org/2000/svg" xmlns:rdkit="http://www.rdkit.org/xml" xmlns:xlink="http://www.w3.org/1999/xlink" version="1.1" baseProfile="full" xml:space="preserve" width="200px" height="200px" viewBox="0 0 200 200">
<!-- END OF HEADER -->
<rect style="opacity:1.0;fill:#FFFFFF;stroke:none" width="200.0" height="200.0" x="0.0" y="0.0"> </rect>
<path class="bond-0 atom-0 atom-1" d="M 169.6,58.4 L 143.4,84.2" style="fill:none;fill-rule:evenodd;stroke:#000000;stroke-width:2.0px;stroke-linecap:butt;stroke-linejoin:miter;stroke-opacity:1"/>
<path class="bond-0 atom-0 atom-1" d="M 165.9,54.7 L 139.7,80.5" style="fill:none;fill-rule:evenodd;stroke:#000000;stroke-width:2.0px;stroke-linecap:butt;stroke-linejoin:miter;stroke-opacity:1"/>
<path class="bond-1 atom-1 atom-2" d="M 142.6,81.3 L 108.6,71.9" style="fill:none;fill-rule:evenodd;stroke:#000000;stroke-width:2.0px;stroke-linecap:butt;stroke-linejoin:miter;stroke-opacity:1"/>
<path class="bond-2 atom-2 atom-3" d="M 108.6,71.9 L 83.5,96.6" style="fill:none;fill-rule:evenodd;stroke:#000000;stroke-width:2.0px;stroke-linecap:butt;stroke-linejoin:miter;stroke-opacity:1"/>
<path class="bond-3 atom-3 atom-4" d="M 83.5,96.6 L 49.5,87.2" style="fill:none;fill-rule:evenodd;stroke:#000000;stroke-width:2.0px;stroke-linecap:butt;stroke-linejoin:miter;stroke-opacity:1"/>
<path class="bond-4 atom-4 atom-5" d="M 49.5,87.2 L 39.9,96.8" style="fill:none;fill-rule:evenodd;stroke:#000000;stroke-width:2.0px;stroke-linecap:butt;stroke-linejoin:miter;stroke-opacity:1"/>
<path class="bond-4 atom-4 atom-5" d="M 39.9,96.8 L 30.2,106.3" style="fill:none;fill-rule:evenodd;stroke:#FF0000;stroke-width:2.0px;stroke-linecap:butt;stroke-linejoin:miter;stroke-opacity:1"/>
<path class="bond-5 atom-1 atom-6" d="M 142.6,81.3 L 151.5,115.4" style="fill:none;fill-rule:evenodd;stroke:#000000;stroke-width:2.0px;stroke-linecap:butt;stroke-linejoin:miter;stroke-opacity:1"/>
<path class="bond-6 atom-6 atom-7" d="M 149.3,117.5 L 164.1,121.6" style="fill:none;fill-rule:evenodd;stroke:#000000;stroke-width:2.0px;stroke-linecap:butt;stroke-linejoin:miter;stroke-opacity:1"/>
<path class="bond-6 atom-6 atom-7" d="M 164.1,121.6 L 179.0,125.7" style="fill:none;fill-rule:evenodd;stroke:#FF0000;stroke-width:2.0px;stroke-linecap:butt;stroke-linejoin:miter;stroke-opacity:1"/>
<path class="bond-6 atom-6 atom-7" d="M 150.7,112.4 L 165.5,116.5" style="fill:none;fill-rule:evenodd;stroke:#000000;stroke-width:2.0px;stroke-linecap:butt;stroke-linejoin:miter;stroke-opacity:1"/>
<path class="bond-6 atom-6 atom-7" d="M 165.5,116.5 L 180.4,120.6" style="fill:none;fill-rule:evenodd;stroke:#FF0000;stroke-width:2.0px;stroke-linecap:butt;stroke-linejoin:miter;stroke-opacity:1"/>
<path class="bond-7 atom-6 atom-8" d="M 151.5,115.4 L 141.8,124.9" style="fill:none;fill-rule:evenodd;stroke:#000000;stroke-width:2.0px;stroke-linecap:butt;stroke-linejoin:miter;stroke-opacity:1"/>
<path class="bond-7 atom-6 atom-8" d="M 141.8,124.9 L 132.1,134.5" style="fill:none;fill-rule:evenodd;stroke:#FF0000;stroke-width:2.0px;stroke-linecap:butt;stroke-linejoin:miter;stroke-opacity:1"/>
<path d="M 140.9,80.8 L 142.6,81.3 L 143.0,83.0" style="fill:none;stroke:#000000;stroke-width:2.0px;stroke-linecap:butt;stroke-linejoin:miter;stroke-opacity:1;"/>
<path d="M 110.3,72.4 L 108.6,71.9 L 107.4,73.1" style="fill:none;stroke:#000000;stroke-width:2.0px;stroke-linecap:butt;stroke-linejoin:miter;stroke-opacity:1;"/>
<path d="M 84.8,95.4 L 83.5,96.6 L 81.8,96.2" style="fill:none;stroke:#000000;stroke-width:2.0px;stroke-linecap:butt;stroke-linejoin:miter;stroke-opacity:1;"/>
<path d="M 51.2,87.7 L 49.5,87.2 L 49.1,87.7" style="fill:none;stroke:#000000;stroke-width:2.0px;stroke-linecap:butt;stroke-linejoin:miter;stroke-opacity:1;"/>
<path d="M 151.0,113.7 L 151.5,115.4 L 151.0,115.9" style="fill:none;stroke:#000000;stroke-width:2.0px;stroke-linecap:butt;stroke-linejoin:miter;stroke-opacity:1;"/>
<path class="atom-5" d="M 10.0 107.0 L 11.4 107.0 L 11.4 111.3 L 16.5 111.3 L 16.5 107.0 L 17.8 107.0 L 17.8 117.0 L 16.5 117.0 L 16.5 112.4 L 11.4 112.4 L 11.4 117.0 L 10.0 117.0 L 10.0 107.0 " fill="#FF0000"/>
<path class="atom-5" d="M 19.9 112.0 Q 19.9 109.6, 21.0 108.3 Q 22.2 106.9, 24.4 106.9 Q 26.7 106.9, 27.8 108.3 Q 29.0 109.6, 29.0 112.0 Q 29.0 114.4, 27.8 115.8 Q 26.6 117.2, 24.4 117.2 Q 22.2 117.2, 21.0 115.8 Q 19.9 114.4, 19.9 112.0 M 24.4 116.0 Q 26.0 116.0, 26.8 115.0 Q 27.6 114.0, 27.6 112.0 Q 27.6 110.0, 26.8 109.0 Q 26.0 108.0, 24.4 108.0 Q 22.9 108.0, 22.1 109.0 Q 21.3 110.0, 21.3 112.0 Q 21.3 114.0, 22.1 115.0 Q 22.9 116.0, 24.4 116.0 " fill="#FF0000"/>
<path class="atom-7" d="M 180.8 124.8 Q 180.8 122.4, 182.0 121.1 Q 183.2 119.7, 185.4 119.7 Q 187.6 119.7, 188.8 121.1 Q 190.0 122.4, 190.0 124.8 Q 190.0 127.2, 188.8 128.6 Q 187.6 130.0, 185.4 130.0 Q 183.2 130.0, 182.0 128.6 Q 180.8 127.2, 180.8 124.8 M 185.4 128.9 Q 186.9 128.9, 187.8 127.8 Q 188.6 126.8, 188.6 124.8 Q 188.6 122.9, 187.8 121.9 Q 186.9 120.9, 185.4 120.9 Q 183.9 120.9, 183.1 121.8 Q 182.2 122.8, 182.2 124.8 Q 182.2 126.8, 183.1 127.8 Q 183.9 128.9, 185.4 128.9 " fill="#FF0000"/>
<path class="atom-8" d="M 111.9 135.2 L 113.3 135.2 L 113.3 139.4 L 118.4 139.4 L 118.4 135.2 L 119.7 135.2 L 119.7 145.2 L 118.4 145.2 L 118.4 140.6 L 113.3 140.6 L 113.3 145.2 L 111.9 145.2 L 111.9 135.2 " fill="#FF0000"/>
<path class="atom-8" d="M 121.8 140.1 Q 121.8 137.8, 122.9 136.4 Q 124.1 135.1, 126.3 135.1 Q 128.6 135.1, 129.7 136.4 Q 130.9 137.8, 130.9 140.1 Q 130.9 142.6, 129.7 144.0 Q 128.5 145.3, 126.3 145.3 Q 124.1 145.3, 122.9 144.0 Q 121.8 142.6, 121.8 140.1 M 126.3 144.2 Q 127.9 144.2, 128.7 143.2 Q 129.5 142.1, 129.5 140.1 Q 129.5 138.2, 128.7 137.2 Q 127.9 136.2, 126.3 136.2 Q 124.8 136.2, 124.0 137.2 Q 123.2 138.2, 123.2 140.1 Q 123.2 142.2, 124.0 143.2 Q 124.8 144.2, 126.3 144.2 " fill="#FF0000"/>
</svg>