<svg xmlns="http://www.w3.org/2000/svg" xmlns:rdkit="http://www.rdkit.org/xml" xmlns:xlink="http://www.w3.org/1999/xlink" version="1.1" baseProfile="full" xml:space="preserve" width="200px" height="200px" viewBox="0 0 200 200">
<!-- END OF HEADER -->
<rect style="opacity:1.0;fill:#FFFFFF;stroke:none" width="200.0" height="200.0" x="0.0" y="0.0"> </rect>
<path class="bond-0 atom-0 atom-1" d="M 178.9,172.8 L 119.3,138.4" style="fill:none;fill-rule:evenodd;stroke:#000000;stroke-width:2.0px;stroke-linecap:butt;stroke-linejoin:miter;stroke-opacity:1"/>
<path class="bond-0 atom-0 atom-1" d="M 183.9,164.3 L 124.3,129.9" style="fill:none;fill-rule:evenodd;stroke:#000000;stroke-width:2.0px;stroke-linecap:butt;stroke-linejoin:miter;stroke-opacity:1"/>
<path class="bond-1 atom-1 atom-2" d="M 124.3,135.6 L 67.1,168.6" style="fill:none;fill-rule:evenodd;stroke:#000000;stroke-width:2.0px;stroke-linecap:butt;stroke-linejoin:miter;stroke-opacity:1"/>
<path class="bond-2 atom-2 atom-3" d="M 67.1,168.6 L 10.0,135.6" style="fill:none;fill-rule:evenodd;stroke:#000000;stroke-width:2.0px;stroke-linecap:butt;stroke-linejoin:miter;stroke-opacity:1"/>
<path class="bond-3 atom-3 atom-4" d="M 10.0,135.6 L 10.0,69.6" style="fill:none;fill-rule:evenodd;stroke:#000000;stroke-width:2.0px;stroke-linecap:butt;stroke-linejoin:miter;stroke-opacity:1"/>
<path class="bond-4 atom-4 atom-5" d="M 10.0,69.6 L 33.2,56.2" style="fill:none;fill-rule:evenodd;stroke:#000000;stroke-width:2.0px;stroke-linecap:butt;stroke-linejoin:miter;stroke-opacity:1"/>
<path class="bond-4 atom-4 atom-5" d="M 33.2,56.2 L 56.4,42.8" style="fill:none;fill-rule:evenodd;stroke:#FF0000;stroke-width:2.0px;stroke-linecap:butt;stroke-linejoin:miter;stroke-opacity:1"/>
<path class="bond-5 atom-5 atom-6" d="M 77.9,42.8 L 101.1,56.2" style="fill:none;fill-rule:evenodd;stroke:#FF0000;stroke-width:2.0px;stroke-linecap:butt;stroke-linejoin:miter;stroke-opacity:1"/>
<path class="bond-5 atom-5 atom-6" d="M 101.1,56.2 L 124.3,69.6" style="fill:none;fill-rule:evenodd;stroke:#000000;stroke-width:2.0px;stroke-linecap:butt;stroke-linejoin:miter;stroke-opacity:1"/>
<path class="bond-6 atom-6 atom-7" d="M 124.3,75.3 L 148.7,61.2" style="fill:none;fill-rule:evenodd;stroke:#000000;stroke-width:2.0px;stroke-linecap:butt;stroke-linejoin:miter;stroke-opacity:1"/>
<path class="bond-6 atom-6 atom-7" d="M 148.7,61.2 L 173.1,47.1" style="fill:none;fill-rule:evenodd;stroke:#FF0000;stroke-width:2.0px;stroke-linecap:butt;stroke-linejoin:miter;stroke-opacity:1"/>
<path class="bond-6 atom-6 atom-7" d="M 119.3,66.7 L 143.8,52.6" style="fill:none;fill-rule:evenodd;stroke:#000000;stroke-width:2.0px;stroke-linecap:butt;stroke-linejoin:miter;stroke-opacity:1"/>
<path class="bond-6 atom-6 atom-7" d="M 143.8,52.6 L 168.2,38.5" style="fill:none;fill-rule:evenodd;stroke:#FF0000;stroke-width:2.0px;stroke-linecap:butt;stroke-linejoin:miter;stroke-opacity:1"/>
<path class="bond-7 atom-6 atom-1" d="M 124.3,69.6 L 124.3,135.6" style="fill:none;fill-rule:evenodd;stroke:#000000;stroke-width:2.0px;stroke-linecap:butt;stroke-linejoin:miter;stroke-opacity:1"/>
<path d="M 121.4,137.2 L 124.3,135.6 L 124.3,132.3" style="fill:none;stroke:#000000;stroke-width:2.0px;stroke-linecap:butt;stroke-linejoin:miter;stroke-opacity:1;"/>
<path d="M 70.0,166.9 L 67.1,168.6 L 64.3,166.9" style="fill:none;stroke:#000000;stroke-width:2.0px;stroke-linecap:butt;stroke-linejoin:miter;stroke-opacity:1;"/>
<path d="M 12.9,137.2 L 10.0,135.6 L 10.0,132.3" style="fill:none;stroke:#000000;stroke-width:2.0px;stroke-linecap:butt;stroke-linejoin:miter;stroke-opacity:1;"/>
<path d="M 10.0,72.9 L 10.0,69.6 L 11.2,68.9" style="fill:none;stroke:#000000;stroke-width:2.0px;stroke-linecap:butt;stroke-linejoin:miter;stroke-opacity:1;"/>
<path d="M 123.1,68.9 L 124.3,69.6 L 124.3,72.9" style="fill:none;stroke:#000000;stroke-width:2.0px;stroke-linecap:butt;stroke-linejoin:miter;stroke-opacity:1;"/>
<path class="atom-5" d="M 58.6 36.7 Q 58.6 32.2, 60.8 29.7 Q 63.0 27.2, 67.1 27.2 Q 71.3 27.2, 73.5 29.7 Q 75.7 32.2, 75.7 36.7 Q 75.7 41.2, 73.5 43.8 Q 71.2 46.3, 67.1 46.3 Q 63.0 46.3, 60.8 43.8 Q 58.6 41.2, 58.6 36.7 M 67.1 44.2 Q 70.0 44.2, 71.5 42.3 Q 73.1 40.4, 73.1 36.7 Q 73.1 33.0, 71.5 31.1 Q 70.0 29.3, 67.1 29.3 Q 64.3 29.3, 62.7 31.1 Q 61.2 33.0, 61.2 36.7 Q 61.2 40.4, 62.7 42.3 Q 64.3 44.2, 67.1 44.2 " fill="#FF0000"/>
<path class="atom-7" d="M 172.8 36.7 Q 172.8 32.2, 175.1 29.7 Q 177.3 27.2, 181.4 27.2 Q 185.6 27.2, 187.8 29.7 Q 190.0 32.2, 190.0 36.7 Q 190.0 41.2, 187.8 43.8 Q 185.5 46.3, 181.4 46.3 Q 177.3 46.3, 175.1 43.8 Q 172.8 41.2, 172.8 36.7 M 181.4 44.2 Q 184.3 44.2, 185.8 42.3 Q 187.4 40.4, 187.4 36.7 Q 187.4 33.0, 185.8 31.1 Q 184.3 29.3, 181.4 29.3 Q 178.6 29.3, 177.0 31.1 Q 175.5 33.0, 175.5 36.7 Q 175.5 40.4, 177.0 42.3 Q 178.6 44.2, 181.4 44.2 " fill="#FF0000"/>
</svg>